<ttFont>
          <CharString index="0">
            -107 callgsubr
            endchar
          </CharString>
          <CharString index="1">
            150 hlineto
            49 131 rlineto
            312 hlineto
            49 -131 rlineto
            158 hlineto
            -268 686 rlineto
            -182 hlineto
            -24 -434 rmoveto
            65 174 rlineto
            13 34 30 101 0 vvcurveto
            5 hlineto
            0 30 -101 13 -34 vhcurveto
            65 -174 rlineto
            return
          </CharString>
          <CharString index="2">
            -26 callgsubr
            86 189 189 -89 86 -179 -178 -89 -73 callgsubr
            89 -86 178 -40 callgsubr
            -9 callsubr
            hvcurveto
            16 vlineto
            101 35 54 91 92 35 -54 -101 1 callgsubr
            -101 -35 -54 -92 vhcurveto
            return
          </CharString>
          <CharString index="3">
            rmoveto
            249 hlineto
            109 87 64 98 86 -61 55 -75 hvcurveto
            -239 hlineto
            -20 -13 13 16 19 16 11 23 hvcurveto
            80 hlineto
            148 78 71 108 49 -18 42 -32 30 hvcurveto
            69 16 44 43 75 vvcurveto
            -134 hlineto
            -19 -12 -43 -45 -29 vhcurveto
            10 -30 -36 5 -40 hhcurveto
            -152 -81 -71 -108 -62 26 -49 51 -31 hvcurveto
            -53 -13 -40 -33 -46 vvcurveto
            -36 19 -27 32 -16 vhcurveto
            -46 -21 -35 -34 -52 vvcurveto
            -72 59 -49 72 vhcurveto
            148 455 rmoveto
            -65 -32 32 54 54 32 32 65 65 33 -32 -54 -54 -33 -32 -65 hvcurveto
            -88 -360 rmoveto
            -31 -22 19 28 26 23 20 30 hvcurveto
            193 hlineto
            30 24 -16 -30 -28 -26 -19 -34 hvcurveto
            endchar
          </CharString>
          <CharString index="4">
            rmoveto
            78 52 38 43 34 -28 callgsubr
            -353 -30 callgsubr
            73 -49 101 vhcurveto
            return
          </CharString>
          <CharString index="5">
            184 111 90 177 hvcurveto
            431 -145 -424 vlineto
            -100 -56 -51 -94 -94 -54 51 100 vhcurveto
            424 -145 -431 vlineto
            -177 110 -90 183 vhcurveto
            return
          </CharString>
          <CharString index="6">
            rmoveto
            105 hlineto
            108 129 -1 3 rlineto
            -133 hlineto
            return
          </CharString>
          <CharString index="7">
            rmoveto
            105 hlineto
            -79 132 rlineto
            -133 hlineto
            -1 -3 rlineto
            return
          </CharString>
          <CharString index="8">
            -100 callgsubr
            -85 -93 callsubr
            return
          </CharString>
          <CharString index="9">
            5 callgsubr
            hlineto
            -91 -2 -82 -52 -104 hhcurveto
            -131 -62 71 146 hvcurveto
            30 vlineto
            138 66 79 142 87 81 -45 -78 vhcurveto
            150 hlineto
            167 -151 79 -172 -218 -134 -113 -242 -248 126 -107 206 105 63 29 59 62 vhcurveto
            13 -76 rlineto
            100 373 -353 hlineto
            return
          </CharString>
          <CharString index="10">
            rmoveto
            127 51 95 114 41 hvcurveto
            177 499 rlineto
            -139 hlineto
            -78 -248 rlineto
            -14 -46 -23 -90 0 vvcurveto
            -5 hlineto
            0 -21 96 -16 41 vhcurveto
            -99 247 rlineto
            -143 hlineto
            206 -526 rlineto
            -52 -19 -28 -21 -46 hhcurveto
            -65 -96 hlineto
            0 36 -13 58 vhcurveto
            return
          </CharString>
          <CharString index="11">
            rmoveto
            138 103 42 128 hvcurveto
            208 -329 -68 92 vvcurveto
            27 36 15 53 53 36 -18 -40 1 vhcurveto
            -2 133 vlineto
            1 1 11 11 vvcurveto
            90 -96 53 -123 -129 -102 -53 -107 vhcurveto
            -203 329 67 -101 vvcurveto
            -37 -53 -10 -46 -51 -53 16 50 -2 vhcurveto
            7 -133 vlineto
            0 -1 -7 -5 vvcurveto
            -100 86 -67 149 vhcurveto
            return
          </CharString>
          <CharString index="12">
            rmoveto
            118 118 -118 hlineto
            210 -118 rmoveto
            119 118 -119 hlineto
            return
          </CharString>
          <CharString index="13">
            rmoveto
            167 89 81 164 hvcurveto
            463 -137 -274 vlineto
            -63 -45 -50 -62 -57 -34 25 68 vhcurveto
            294 -137 -323 -51 callsubr
            4 hlineto
            -1 -40 rlineto
            -86 -1 -37 -43 -88 hhcurveto
            -43 -38 10 35 hvcurveto
            -133 -10 hlineto
            -100 88 -47 127 vhcurveto
            endchar
          </CharString>
          <CharString index="14">
            -598 -107 callgsubr
            return
          </CharString>
          <CharString index="15">
            rmoveto
            -137 69 vlineto
            -13 -34 -29 -21 -44 -12 rrcurveto
            38 -45 -63 18 -82 hhcurveto
            -178 -89 -73 callgsubr
            89 -86 178 -26 callgsubr
            86 189 67 -11 54 -22 42 hvcurveto
            89 31 41 62 113 vvcurveto
            54 vlineto
            -238 -431 rmoveto
            -34 callgsubr
            16 vlineto
            101 35 54 91 92 35 -54 -101 vhcurveto
            return
          </CharString>
          <CharString index="16">
            142 hlineto
            63 252 rlineto
            13 51 8 64 0 vvcurveto
            5 hlineto
            0 12 -66 12 -50 vhcurveto
            60 -251 rlineto
            142 hlineto
            156 526 0 callgsubr
            -54 -218 rlineto
            -14 -56 -18 -93 0 vvcurveto
            -4 hlineto
            0 -20 101 -13 48 vhcurveto
            -57 218 -19 callsubr
            -54 -217 rlineto
            -11 -45 -21 -105 0 vvcurveto
            -4 hlineto
            0 -21 114 -10 37 vhcurveto
            -57 216 -11 callsubr
          </CharString>
          <CharString index="17">
            -100 callgsubr
            -358 -81 callsubr
            return
          </CharString>
          <CharString index="18">
            145 256 192 hlineto
            121 -256 rlineto
            157 hlineto
            -140 279 rlineto
            82 33 38 67 92 vvcurveto
            133 -75 82 -156 vhcurveto
            -364 0 callsubr
            -309 rmoveto
            186 206 vlineto
            63 34 -34 -58 -58 -34 -36 -63 hvcurveto
            return
          </CharString>
          <CharString index="19">
            rmoveto
            173 134 85 181 hvcurveto
            -144 hlineto
            -91 -64 -52 -96 -128 -58 76 141 vhcurveto
            30 vlineto
            136 58 81 128 89 66 -52 -92 vhcurveto
            149 hlineto
            181 -137 86 -170 -206 -126 -113 -242 -252 126 -103 206 vhcurveto
            endchar
          </CharString>
          <CharString index="20">
            rmoveto
            135 130 -135 hlineto
            return
          </CharString>
          <CharString index="21">
            rmoveto
            -137 69 vlineto
            -7 -19 -12 -14 -17 -12 rrcurveto
            -121 -424 hlineto
            -100 -56 -51 -94 -94 -54 51 100 vhcurveto
            424 -145 -431 vlineto
            -177 110 -90 183 184 111 90 177 vhcurveto
            365 vlineto
            69 34 32 60 100 vvcurveto
            54 vlineto
            return
          </CharString>
          <CharString index="22">
            rmoveto
            137 93 68 142 hvcurveto
            -132 hlineto
            -64 -37 -36 -57 -83 -33 56 101 vhcurveto
            16 vlineto
            101 32 56 77 60 35 -35 -65 vhcurveto
            138 hlineto
            141 -94 69 -136 -166 -85 -64 callsubr
            167 vhcurveto
            endchar
          </CharString>
          <CharString index="23">
            63 45 50 62 57 34 -55 callgsubr
            353 vlineto
            136 -73 49 -101 return
          </CharString>
          <CharString index="24">
            rmoveto
            93 38 49 59 37 -17 30 -38 18 hvcurveto
            31 19 15 27 32 vvcurveto
            56 -41 47 -81 -81 -41 -47 -56 -31 15 -28 30 -19 vhcurveto
            -39 -18 -15 -30 -37 vvcurveto
            -59 38 -49 93 vhcurveto
            224 vmoveto
            -26 -13 15 26 27 13 14 26 25 15 -14 -27 -26 -15 -15 -25 hvcurveto
            -156 vmoveto
            -31 -16 17 28 28 16 16 31 30 17 -16 -28 -28 -17 -17 -30 hvcurveto
            endchar
          </CharString>
          <CharString index="25">
            -89 callgsubr
            endchar
          </CharString>
          <CharString index="26">
            -731 rmoveto
            -106 callsubr
            return
          </CharString>
          <CharString index="27">
            -74 callsubr
            -78 -52 -38 -43 -34 6 callgsubr
            -10 69 rlineto
            -117 hlineto
            return
          </CharString>
          <CharString index="28">
            284 hlineto
            204 124 109 234 234 -124 109 -204 hvcurveto
            -284 0 callsubr
            -563 rmoveto
            440 139 vlineto
            119 60 -77 -128 hvcurveto
            -30 vlineto
            -128 -60 -77 -119 vhcurveto
            return
          </CharString>
          <CharString index="29">
            -104 callgsubr
            -206 -66 callsubr
            return
          </CharString>
          <CharString index="30">
            rmoveto
            151 83 70 135 hvcurveto
            493 -146 -491 vlineto
            -54 -29 -31 -59 -61 -31 31 54 vhcurveto
            41 -144 -43 vlineto
            -135 85 -70 151 vhcurveto
            endchar
          </CharString>
          <CharString index="31">
            733 -104 callgsubr
            return
          </CharString>
          <CharString index="32">
            569 123 -355 hlineto
            346 494 rlineto
            69 -534 -123 321 vlineto
            -347 -495 rlineto
            return
          </CharString>
          <CharString index="33">
            -17 callsubr
            hlineto
            -84 callsubr
            return
          </CharString>
          <CharString index="34">
            rmoveto
            45 39 -37 48 hhcurveto
            71 28 57 65 hvcurveto
            -70 hlineto
            -28 -4 -12 -9 -19 -45 -39 37 -49 hhcurveto
            -70 -28 -57 -65 hvcurveto
            70 hlineto
            27 4 12 10 19 hhcurveto
            return
          </CharString>
          <CharString index="35">
            rmoveto
            72 hlineto
            63 104 rlineto
            86 -138 -98 1 callsubr
          </CharString>
          <CharString index="36">
            7 hlineto
            10 -5 callgsubr
            return
          </CharString>
          <CharString index="37">
            605 -95 callsubr
            return
          </CharString>
          <CharString index="38">
            rlineto
            41 hlineto
            32 10 -8 -16 -19 -17 -5 -28 hvcurveto
            -88 -49 hlineto
            -5 30 40 -3 34 hhcurveto
            54 82 14 67 46 -45 19 -53 3 hvcurveto
            return
          </CharString>
          <CharString index="39">
            rmoveto
            95 hlineto
            58 77 rlineto
            -27 52 63 -13 74 hhcurveto
            216 132 113 242 123 -34 90 -62 58 hvcurveto
            91 121 rlineto
            -94 hlineto
            -58 -78 rlineto
            28 -53 -64 13 -74 2 callgsubr
            -123 34 -90 62 -58 hvcurveto
            87 116 rmoveto
            -23 36 -11 47 57 vvcurveto
            30 vlineto
            136 66 81 132 44 36 -9 -17 29 vhcurveto
            -109 -438 rmoveto
            -43 -36 8 17 -29 hvcurveto
            272 362 rlineto
            23 -36 12 -47 -57 vvcurveto
            -2 callsubr
          </CharString>
          <CharString index="40">
            rmoveto
            85 hlineto
            41 59 rlineto
            -14 37 45 -8 52 hhcurveto
            -26 callgsubr
            86 189 100 -25 70 -50 45 hvcurveto
            68 97 rlineto
            -84 hlineto
            -42 -60 rlineto
            15 -37 -45 8 -53 hhcurveto
            -178 -89 -86 -189 -100 25 -71 49 -45 hvcurveto
            82 117 rmoveto
            -10 24 -5 30 37 vvcurveto
            16 vlineto
            101 35 54 91 25 22 -5 -8 17 vhcurveto
            -64 -313 rmoveto
            -25 -21 4 8 -17 hvcurveto
            175 250 rlineto
            10 -24 5 -31 -36 vvcurveto
            3 callsubr
          </CharString>
          <CharString index="41">
            -868 -89 callgsubr
            return
          </CharString>
          <CharString index="42">
            28 15 15 28 vhcurveto
            50 96 hlineto
            8 -21 -38 8 -29 hhcurveto
            -110 -32 -73 -72 hvcurveto
            -60 -75 -112 75 return
          </CharString>
          <CharString index="43">
            -73 callgsubr
            84 -86 return
          </CharString>
          <CharString index="44">
            -16 330 -12 -98 callgsubr
            return
          </CharString>
          <CharString index="45">
            111 -79 callgsubr
            return
          </CharString>
          <CharString index="46">
            rmoveto
            88 hlineto
            546 710 rlineto
            -88 hlineto
            return
          </CharString>
          <CharString index="47">
            526 -137 return
          </CharString>
          <CharString index="48">
            284 hlineto
            204 124 109 234 234 -124 109 -204 hvcurveto
            -284 hlineto
            672 -686 rmoveto
            -75 callsubr
            -527 55 rmoveto
            440 139 vlineto
            119 60 -77 -128 hvcurveto
            -30 vlineto
            -128 -60 -77 -119 vhcurveto
            endchar
          </CharString>
          <CharString index="49">
            -104 callgsubr
            60 return
          </CharString>
          <CharString index="50">
            54 368 -12 rmoveto
            196 159 159 196 196 -159 159 -196 -196 -159 -159 -196 -196 159 -159 196 hvcurveto
            62 vmoveto
            -161 -130 131 162 161 130 132 161 161 130 -132 -161 -162 -130 -131 -161 hvcurveto
            return
          </CharString>
          <CharString index="51">
            rmoveto
            -54 callsubr
          </CharString>
          <CharString index="52">
            39 351 686 rmoveto
            -284 -289 -63 -85 63 -312 284 hlineto
            204 124 109 234 234 -124 109 -204 hvcurveto
            179 -358 rmoveto
            -128 -60 -77 -119 vhcurveto
            -139 189 139 85 -139 166 139 hlineto
            119 60 -77 -128 hvcurveto
            endchar
          </CharString>
          <CharString index="53">
            -38 callsubr
            endchar
          </CharString>
          <CharString index="54">
            -369 rmoveto
            239 75 -74 282 -43 hlineto
            -35 -20 -53 -18 -34 -3 rrcurveto
            -55 82 -186 -82 vlineto
            return
          </CharString>
          <CharString index="55">
            329 rmoveto
            256 75 -154 hlineto
            9 9 16 12 16 11 rrcurveto
            48 32 63 43 78 vvcurveto
            29 -11 80 -109 -70 -61 -30 -72 -16 3 -12 0 vhcurveto
            80 18 hlineto
            31 16 12 29 28 13 -19 -17 -14 -3 -16 -9 -12 vhcurveto
            -15 -21 -24 -18 -27 -20 rrcurveto
            -46 -36 -48 -37 -65 vvcurveto
            return
          </CharString>
          <CharString index="56">
            -30 callgsubr
            73 -49 101 78 52 38 43 34 vhcurveto
            return
          </CharString>
          <CharString index="57">
            -83 callgsubr
            96 -132 -101 callsubr
            return
          </CharString>
          <CharString index="58">
            135 rlineto
            return
          </CharString>
          <CharString index="59">
            -107 52 5 callsubr
            137 97 hlineto
            16 -2 29 -6 50 vhcurveto
            -22 20 31 -9 32 hhcurveto
            59 42 31 50 25 -28 callgsubr
            vlineto
            endchar
          </CharString>
          <CharString index="60">
            137 -60 callsubr
            hlineto
            return
          </CharString>
          <CharString index="61">
            rmoveto
            -80 callgsubr
            -341 46 -44 callsubr
          </CharString>
          <CharString index="62">
            -43 callgsubr
            endchar
          </CharString>
          <CharString index="63">
            -63 callgsubr
            endchar
          </CharString>
          <CharString index="64">
            -16 167 -76 callsubr
            return
          </CharString>
          <CharString index="65">
            rmoveto
            -1 3 rlineto
            -133 hlineto
            -79 -132 rlineto
            105 hlineto
            return
          </CharString>
          <CharString index="66">
            -32 -7 37 55 hvcurveto
            15 vlineto
            55 7 37 32 32 7 -37 -55 vhcurveto
            -15 vlineto
            -55 -7 -37 -32 vhcurveto
            return
          </CharString>
          <CharString index="67">
            rmoveto
            83 70 40 69 -40 148 -44 hlineto
            -9 -31 -16 -42 -14 -27 rrcurveto
            -48 -72 vlineto
            26 37 54 103 21 89 rrcurveto
            -89 hlineto
            -24 -91 -27 -80 -39 -63 rrcurveto
            -64 150 vlineto
            endchar
          </CharString>
          <CharString index="68">
            212 125 -569 -125 212 return
          </CharString>
          <CharString index="69">
            -41 callgsubr
            hlineto
            return
          </CharString>
          <CharString index="70">
            rmoveto
            -79 132 rlineto
            -133 hlineto
            -1 -3 108 -129 rlineto
            return
          </CharString>
          <CharString index="71">
            556 -76 callgsubr
            return
          </CharString>
          <CharString index="72">
            -31 callgsubr
            28 19 return
          </CharString>
          <CharString index="73">
            -294 71 hmoveto
            -77 callgsubr
            return
          </CharString>
          <CharString index="74">
            rmoveto
            99 hlineto
            136 200 -136 200 rlineto
            -99 hlineto
            108 -200 rlineto
            return
          </CharString>
          <CharString index="75">
            -72 233 hmoveto
            -27 callgsubr
            return
          </CharString>
          <CharString index="76">
            -44 callgsubr
            -723 vmoveto
            -47 callsubr
            return
          </CharString>
          <CharString index="77">
            0 59 73 84 vhcurveto
            76 57 -61 74 hhcurveto
            95 48 73 0 hvcurveto
            120 vlineto
            0 -59 -73 -84 vhcurveto
            -76 -57 61 -74 hhcurveto
            -95 -48 -73 0 hvcurveto
            return
          </CharString>
          <CharString index="78">
            137 723 -10 callgsubr
            return
          </CharString>
          <CharString index="79">
            hlineto
            44 31 30 50 51 32 -29 -49 vhcurveto
            -17 136 13 vlineto
            129 -86 65 -133 -137 -82 -66 -133 vhcurveto
            return
          </CharString>
          <CharString index="80">
            78 84 29 -52 -95 vhcurveto
            -18 vlineto
            -95 -29 -52 -84 vhcurveto
            endchar
          </CharString>
          <CharString index="81">
            rmoveto
            474 196 rlineto
            127 vlineto
            -474 197 rlineto
            -118 vlineto
            373 -142 -373 -142 rlineto
            return
          </CharString>
          <CharString index="82">
            rmoveto
            106 hlineto
            21 132 rlineto
            147 -149 -147 vlineto
            return
          </CharString>
          <CharString index="83">
            hvcurveto
            7 hlineto
            return
          </CharString>
          <CharString index="84">
            -72 71 5 callsubr
            137 234 6 hlineto
            -47 31 55 -26 71 hhcurveto
            116 87 85 189 191 return
          </CharString>
          <CharString index="85">
            rmoveto
            118 vlineto
            -373 142 373 142 rlineto
            118 vlineto
            -474 -197 rlineto
            -127 vlineto
            return
          </CharString>
          <CharString index="86">
            145 289 298 -289 -41 callgsubr
            -272 -298 272 -4 callsubr
            return
          </CharString>
          <CharString index="87">
            71 hmoveto
            -29 callsubr
            return
          </CharString>
          <CharString index="88">
            rlineto
            -141 hlineto
            return
          </CharString>
          <CharString index="89">
            -17 17 183 rlineto
            -108 hlineto
            17 -183 -205 17 rlineto
            -113 vlineto
            205 18 return
          </CharString>
          <CharString index="90">
            137 304 return
          </CharString>
          <CharString index="91">
            599 -44 callgsubr
            return
          </CharString>
          <CharString index="92">
            hlineto
            18 -3 42 0 vhcurveto
            5 3 rlineto
            0 19 -38 20 -28 vhcurveto
            265 return
          </CharString>
          <CharString index="93">
            55 -24 vlineto
            -35 -13 25 26 return
          </CharString>
          <CharString index="94">
            -304 hlineto
            -86 callgsubr
            return
          </CharString>
          <CharString index="95">
            197 rlineto
            52 vlineto
            -130 -53 rlineto
            return
          </CharString>
          <CharString index="96">
            -19 callsubr
            endchar
          </CharString>
          <CharString index="97">
            -101 callsubr
            -27 return
          </CharString>
          <CharString index="98">
            -91 -35 54 101 return
          </CharString>
          <CharString index="99">
            rlineto
            -52 hlineto
            -197 -173 rlineto
            -21 vlineto
            endchar
          </CharString>
          <CharString index="100">
            vlineto
            -130 53 rlineto
            -52 vlineto
            return
          </CharString>
          <CharString index="101">
            rmoveto
            72 hlineto
            66 return
          </CharString>
          <CharString index="102">
            -72 253 return
          </CharString>
          <CharString index="103">
            -145 hlineto
            return
          </CharString>
          <CharString index="104">
            hlineto
            41 196 rlineto
            -104 hlineto
            -41 -196 rlineto
            return
          </CharString>
          <CharString index="105">
            2 callsubr
            endchar
          </CharString>
          <CharString index="106">
            -723 rmoveto
            -47 callsubr
            return
          </CharString>
          <CharString index="107">
            hlineto
            145 return
          </CharString>
          <CharString index="108">
            55 vlineto
            endchar
          </CharString>
          <CharString index="109">
            -30 -30 callgsubr
            -66 -81 -133 vhcurveto
            return
          </CharString>
          <CharString index="110">
            -16 vlineto
            -101 -35 -54 -92 vhcurveto
            endchar
          </CharString>
          <CharString index="111">
            vmoveto
            556 98 -556 hlineto
            endchar
          </CharString>
          <CharString index="112">
            -173 rmoveto
            return
          </CharString>
          <CharString index="113">
            rmoveto
            -135 -130 135 hlineto
            return
          </CharString>
          <CharString index="114" raw="1">
            fd6715f7 1d0b  
          </CharString>
        <CharString name=".notdef">
          -182 0 vmoveto
          500 700 -500 hlineto
          250 -305 rmoveto
          -170 255 rlineto
          340 hlineto
          -370 -555 rmoveto
          510 vlineto
          170 -255 rlineto
          230 -255 rmoveto
          -170 255 170 255 rlineto
          -370 -555 rmoveto
          170 255 170 -255 rlineto
          endchar
        </CharString>
        <CharString name="A">
          39 2 hmoveto
          -106 callsubr
          endchar
        </CharString>
        <CharString name="AE">
          317 -5 hmoveto
          -50 callgsubr
        </CharString>
        <CharString name="AEacute">
          317 447 736 -101 callsubr
          -531 -868 rmoveto
          -50 callgsubr
        </CharString>
        <CharString name="Aacute">
          -8 callgsubr
          736 -101 callsubr
          -385 -868 -102 callgsubr
        </CharString>
        <CharString name="Abreve">
          39 360 731 -90 callgsubr
        </CharString>
        <CharString name="Acircumflex">
          -42 callgsubr
          -298 -868 -102 callgsubr
        </CharString>
        <CharString name="Adieresis">
          39 197 -69 callgsubr
          -405 -868 -102 callgsubr
        </CharString>
        <CharString name="Agrave">
          -8 callgsubr
          -64 callgsubr
          -198 -865 -102 callgsubr
        </CharString>
        <CharString name="Amacron">
          39 208 756 -62 callgsubr
          -206 -844 -102 callgsubr
        </CharString>
        <CharString name="Aogonek">
          39 638 -4 callgsubr
          27 27 5 9 29 hvcurveto
          55 -36 vlineto
          -42 -16 19 32 24 13 23 12 15 hvcurveto
          68 hlineto
          -268 686 rlineto
          -182 hlineto
          -268 -686 rlineto
          150 hlineto
          49 131 rlineto
          312 hlineto
          49 -131 rlineto
          -22 -23 -18 -28 -43 vvcurveto
          -67 54 -21 62 vhcurveto
          -392 434 rmoveto
          65 174 rlineto
          13 34 30 101 0 vvcurveto
          5 hlineto
          0 30 -101 13 -34 vhcurveto
          65 -174 rlineto
          endchar
        </CharString>
        <CharString name="Aring">
          39 361 701 -76 callgsubr
          -359 -758 -102 callgsubr
        </CharString>
        <CharString name="Aringacute">
          39 302 861 -101 callsubr
          -379 -993 rmoveto
          150 hlineto
          49 131 rlineto
          312 hlineto
          49 -131 rlineto
          158 hlineto
          -268 686 rlineto
          6 14 4 16 17 vvcurveto
          56 -38 45 -63 -63 -38 -45 -56 -17 3 -16 7 -14 vhcurveto
          92 2 rmoveto
          -27 -18 20 25 25 17 19 27 26 18 -19 -25 -25 -17 -20 -26 hvcurveto
          -116 -436 rmoveto
          65 174 rlineto
          13 34 30 101 0 vvcurveto
          5 hlineto
          0 30 -101 13 -34 vhcurveto
          65 -174 rlineto
          endchar
        </CharString>
        <CharString name="Atilde">
          39 193 746 -103 callgsubr
          -191 -746 -102 callgsubr
        </CharString>
        <CharString name="B">
          39 67 hmoveto
          393 hlineto
          116 95 62 130 84 -55 65 -76 15 hvcurveto
          4 vlineto
          63 21 49 56 79 vvcurveto
          101 -83 69 -109 vhcurveto
          -393 hlineto
          146 -274 rmoveto
          151 213 vlineto
          46 31 -26 -52 -40 -28 -33 -56 hvcurveto
          -206 -289 rmoveto
          168 215 vlineto
          64 30 -36 -47 -56 -38 -29 -48 hvcurveto
          endchar
        </CharString>
        <CharString name="C">
          39 374 -12 -88 callsubr
        </CharString>
        <CharString name="CR">
          -683 endchar
        </CharString>
        <CharString name="Cacute">
          -8 callgsubr
          736 -101 callsubr
          -13 -880 -88 callsubr
        </CharString>
        <CharString name="Cacute.loclPLK">
          -8 callgsubr
          736 -60 callgsubr
          37 -879 -88 callsubr
        </CharString>
        <CharString name="Ccaron">
          39 300 733 -97 callgsubr
          180 -880 -88 callsubr
        </CharString>
        <CharString name="Ccedilla">
          39 377 111 rmoveto
          -128 -58 76 141 hvcurveto
          30 vlineto
          136 58 81 128 89 66 -52 -92 vhcurveto
          149 hlineto
          181 -137 86 -170 -206 -126 -113 -242 -231 106 -106 177 -16 vhcurveto
          -10 -67 -69 callsubr
          3 22 rlineto
          155 11 116 86 168 vvcurveto
          -144 hlineto
          -91 -64 -52 -96 vhcurveto
          endchar
        </CharString>
        <CharString name="Ccircumflex">
          -42 callgsubr
          74 -880 -88 callsubr
        </CharString>
        <CharString name="Cdotaccent">
          39 293 739 -87 callsubr
          81 -881 -88 callsubr
        </CharString>
        <CharString name="D">
          39 67 hmoveto
          -79 callsubr
          endchar
        </CharString>
        <CharString name="Dcaron">
          39 300 733 -97 callgsubr
          -127 -868 rmoveto
          -79 callsubr
          endchar
        </CharString>
        <CharString name="Dcroat">
          -55 callsubr
        </CharString>
        <CharString name="E">
          -16 67 hmoveto
          -92 callgsubr
          endchar
        </CharString>
        <CharString name="Eacute">
          -16 281 736 -101 callsubr
          -293 -45 callgsubr
        </CharString>
        <CharString name="Ebreve">
          -16 333 -68 callgsubr
          -266 -731 -82 callsubr
        </CharString>
        <CharString name="Ecaron">
          -16 273 733 -97 callgsubr
          -100 -45 callgsubr
        </CharString>
        <CharString name="Ecircumflex">
          -16 167 733 -78 callgsubr
        </CharString>
        <CharString name="Edieresis">
          -16 170 -69 callgsubr
          -313 -45 callgsubr
        </CharString>
        <CharString name="Edotaccent">
          -16 266 739 -87 callsubr
          -199 -869 -82 callsubr
        </CharString>
        <CharString name="Egrave">
          -16 281 -64 callgsubr
          -106 -865 -82 callsubr
        </CharString>
        <CharString name="Emacron">
          -16 181 756 -62 callgsubr
          -114 -844 -82 callsubr
        </CharString>
        <CharString name="Eng">
          39 517 -17 callgsubr
          727 -141 -376 vlineto
          -11 3 -47 0 vhcurveto
          -5 -3 rlineto
          0 -27 49 -13 18 vhcurveto
          -264 370 rlineto
          -141 -686 141 376 -15 callsubr
          -373 rlineto
          -27 vlineto
          -12 callgsubr
        </CharString>
        <CharString name="Eogonek">
          -16 541 -38 callgsubr
          -24 vlineto
          -33 -15 18 19 31 45 30 27 15 -18 callgsubr
          -400 166 350 123 -350 151 394 123 -539 -686 442 vlineto
          -40 -24 -34 -29 -47 vvcurveto
          -62 57 -20 49 vhcurveto
          endchar
        </CharString>
        <CharString name="Eth">
          -55 callsubr
        </CharString>
        <CharString name="Euro">
          403 -12 rmoveto
          41 41 6 12 37 hvcurveto
          110 vlineto
          -11 -29 -31 -5 -34 hhcurveto
          -92 -73 48 79 -35 hvcurveto
          222 81 -243 hlineto
          -1 11 -1 12 12 vvcurveto
          12 1 13 1 10 vhcurveto
          243 81 -222 hlineto
          79 35 73 48 92 hhcurveto
          34 31 -6 -10 29 hvcurveto
          110 vlineto
          11 -37 -41 7 -41 hhcurveto
          -158 -121 -93 -146 -42 hvcurveto
          -72 -81 58 hlineto
          -1 -12 0 -11 -12 vvcurveto
          -12 0 -12 1 -11 vhcurveto
          -58 -81 72 hlineto
          -147 42 121 -92 158 hhcurveto
          endchar
        </CharString>
        <CharString name="F">
          -72 67 hmoveto
          145 271 315 123 -315 169 352 123 -497 hlineto
          endchar
        </CharString>
        <CharString name="G">
          95 364 254 -98 callsubr
          endchar
        </CharString>
        <CharString name="G_tilde.loclGUA">
          95 326 783 -73 callsubr
          38 -529 -98 callsubr
          endchar
        </CharString>
        <CharString name="Gbreve">
          95 388 -68 callgsubr
          -24 -477 -98 callsubr
          endchar
        </CharString>
        <CharString name="Gcaron">
          95 450 733 rmoveto
          105 -49 callsubr
          -111 hlineto
          -55 -69 -56 69 rlineto
          -111 hlineto
          106 -135 rlineto
          36 -479 -98 callsubr
          endchar
        </CharString>
        <CharString name="Gcircumflex">
          95 389 802 rmoveto
          55 -69 rlineto
          111 hlineto
          -105 -49 callsubr
          -122 hlineto
          -106 -135 rlineto
          111 hlineto
          31 -479 -98 callsubr
          endchar
        </CharString>
        <CharString name="Gcommaaccent">
          95 364 254 -98 callsubr
          -44 -511 rmoveto
          55 hlineto
          -52 -92 rlineto
          72 hlineto
          63 104 rlineto
          86 -138 vlineto
          endchar
        </CharString>
        <CharString name="Gdotaccent">
          95 456 869 6 callsubr
          -92 -485 -98 callsubr
          endchar
        </CharString>
        <CharString name="H">
          -25 callgsubr
          endchar
        </CharString>
        <CharString name="Hbar">
          39 67 hmoveto
          145 289 298 -289 145 507 60 91 -60 88 -145 -88 -298 88 -145 -88 -60 -91 60 0 callsubr
          -93 rmoveto
          93 298 -93 vlineto
          endchar
        </CharString>
        <CharString name="Hcircumflex">
          -42 callgsubr
          -233 -868 rmoveto
          -21 callsubr
          endchar
        </CharString>
        <CharString name="I">
          -405 67 hmoveto
          -54 callsubr
        </CharString>
        <CharString name="IJ">
          151 67 hmoveto
          -38 callsubr
          472 -698 -77 callsubr
        </CharString>
        <CharString name="Iacute">
          -405 86 736 -101 callsubr
          -98 -868 -56 callsubr
        </CharString>
        <CharString name="Iacute_J.loclNLD">
          151 86 736 -101 callsubr
          482 -132 -101 callsubr
          -659 -868 rmoveto
          -38 callsubr
          472 -698 -77 callsubr
        </CharString>
        <CharString name="Ibreve">
          -405 138 -68 callgsubr
          -71 -731 -56 callsubr
        </CharString>
        <CharString name="Icircumflex">
          -405 -28 -76 callsubr
          -11 -868 -56 callsubr
        </CharString>
        <CharString name="Idieresis">
          -405 -25 -69 callgsubr
          -118 -868 -56 callsubr
        </CharString>
        <CharString name="Idotaccent">
          -405 71 739 -87 callsubr
          -4 -869 -56 callsubr
        </CharString>
        <CharString name="Igrave">
          -405 86 -64 callgsubr
          89 -865 -56 callsubr
        </CharString>
        <CharString name="Imacron">
          -405 -14 756 -62 callgsubr
          81 -844 -56 callsubr
        </CharString>
        <CharString name="Iogonek">
          -405 212 hmoveto
          686 -145 -686 15 vlineto
          -24 -25 -23 -30 -47 -35 callsubr
          28 13 14 hvcurveto
          endchar
        </CharString>
        <CharString name="Itilde">
          -405 -29 746 -103 callgsubr
          96 -746 -56 callsubr
        </CharString>
        <CharString name="J">
          261 -12 -77 callsubr
        </CharString>
        <CharString name="Jcircumflex">
          255 -76 callsubr
          -100 -880 -77 callsubr
        </CharString>
        <CharString name="K">
          -37 callgsubr
          endchar
        </CharString>
        <CharString name="Kcommaaccent">
          -37 callgsubr
          228 -916 -72 callsubr
        </CharString>
        <CharString name="L">
          -72 67 hmoveto
          -46 callgsubr
          endchar
        </CharString>
        <CharString name="Lacute">
          -72 87 736 -101 callsubr
          -99 -868 rmoveto
          -46 callgsubr
          endchar
        </CharString>
        <CharString name="Lcaron">
          -72 67 hmoveto
          -46 callgsubr
          287 -244 -14 callgsubr
        </CharString>
        <CharString name="Lcommaaccent">
          -72 67 hmoveto
          -46 callgsubr
          192 -916 -72 callsubr
        </CharString>
        <CharString name="Ldot">
          -72 67 hmoveto
          -46 callgsubr
          276 -297 rmoveto
          4 callgsubr
        </CharString>
        <CharString name="Lslash">
          -72 67 hmoveto
          515 126 -370 216 hlineto
          141 93 rlineto
          102 vlineto
          -141 -93 rlineto
          242 -145 -338 vlineto
          -67 -44 rlineto
          -102 vlineto
          67 44 rlineto
          endchar
        </CharString>
        <CharString name="M">
          150 67 hmoveto
          140 437 hlineto
          27 -6 83 0 vhcurveto
          5 hlineto
          21 -81 118 -466 rlineto
          138 hlineto
          118 466 21 81 rlineto
          5 hlineto
          0 -6 -79 -31 vvcurveto
          -437 -24 callgsubr
          -216 vlineto
          -96 -378 rlineto
          -10 -40 -18 -115 0 vvcurveto
          -5 hlineto
          0 -20 110 -12 45 vhcurveto
          -96 378 rlineto
          -226 hlineto
          endchar
        </CharString>
        <CharString name="N">
          39 -48 callgsubr
          endchar
        </CharString>
        <CharString name="NULL">
          -683 endchar
        </CharString>
        <CharString name="Nacute">
          -8 callgsubr
          736 -101 callsubr
          -320 -868 rmoveto
          -94 callgsubr
          endchar
        </CharString>
        <CharString name="Nacute.loclPLK">
          -8 callgsubr
          736 -60 callgsubr
          -270 -867 rmoveto
          -94 callgsubr
          endchar
        </CharString>
        <CharString name="Ncaron">
          39 300 733 -97 callgsubr
          -127 -868 rmoveto
          -94 callgsubr
          endchar
        </CharString>
        <CharString name="Ncommaaccent">
          39 -48 callgsubr
          228 -916 -72 callsubr
        </CharString>
        <CharString name="Ntilde">
          39 193 746 -103 callgsubr
          -126 -746 rmoveto
          -94 callgsubr
          endchar
        </CharString>
        <CharString name="O">
          95 389 -12 -106 callgsubr
          endchar
        </CharString>
        <CharString name="OE">
          317 313 -12 rmoveto
          69 59 21 44 49 hvcurveto
          -53 455 123 -310 166 260 123 -260 151 304 123 -449 -54 vlineto
          45 -47 -57 21 -73 hhcurveto
          -169 -102 -123 -232 -232 102 -123 169 hvcurveto
          30 123 rmoveto
          -108 -44 76 156 156 44 76 108 91 56 -62 -170 -170 -56 -62 -91 hvcurveto
          endchar
        </CharString>
        <CharString name="Oacute">
          95 336 736 -101 callsubr
          -26 -880 -106 callgsubr
          endchar
        </CharString>
        <CharString name="Oacute.loclPLK">
          95 336 736 -60 callgsubr
          24 -879 -106 callgsubr
          endchar
        </CharString>
        <CharString name="Obreve">
          95 388 -68 callgsubr
          1 -743 -106 callgsubr
          endchar
        </CharString>
        <CharString name="Ocircumflex">
          95 222 -76 callsubr
          61 -880 -106 callgsubr
          endchar
        </CharString>
        <CharString name="Odieresis">
          95 225 -69 callgsubr
          -46 -880 -106 callgsubr
          endchar
        </CharString>
        <CharString name="Ograve">
          95 336 -64 callgsubr
          161 -877 -106 callgsubr
          endchar
        </CharString>
        <CharString name="Ohorn">
          95 639 828 -95 callgsubr
          endchar
        </CharString>
        <CharString name="Ohungarumlaut">
          95 249 736 -101 callsubr
          96 -132 -101 callsubr
          -114 -880 -106 callgsubr
          endchar
        </CharString>
        <CharString name="Omacron">
          95 236 756 -62 callgsubr
          153 -856 -106 callgsubr
          endchar
        </CharString>
        <CharString name="Oslash">
          95 47 -49 -68 callsubr
        </CharString>
        <CharString name="Oslashacute">
          95 336 736 -101 callsubr
          -368 -917 -68 callsubr
        </CharString>
        <CharString name="Otilde">
          95 221 746 -103 callgsubr
          168 -758 -106 callgsubr
          endchar
        </CharString>
        <CharString name="P">
          -16 67 hmoveto
          145 236 -13 callgsubr
          -327 0 callsubr
          -327 rmoveto
          204 169 -15 callgsubr
          endchar
        </CharString>
        <CharString name="Q">
          95 527 -130 rmoveto
          191 hlineto
          -156 150 rlineto
          111 49 64 106 168 vvcurveto
          242 -132 113 -216 -215 -132 -113 -242 -242 132 -113 215 9 9 0 1 9 vhcurveto
          -27 122 rmoveto
          -132 -66 81 136 hvcurveto
          30 vlineto
          136 66 81 132 133 66 -81 -136 vhcurveto
          -2 callsubr
        </CharString>
        <CharString name="R">
          -49 callgsubr
          endchar
        </CharString>
        <CharString name="Racute">
          -8 callgsubr
          736 -101 callsubr
          -320 -868 rmoveto
          -89 callsubr
          endchar
        </CharString>
        <CharString name="Rcaron">
          39 300 733 -97 callgsubr
          -127 -868 rmoveto
          -89 callsubr
          endchar
        </CharString>
        <CharString name="Rcommaaccent">
          -49 callgsubr
          -123 -607 -72 callsubr
        </CharString>
        <CharString name="S">
          -63 callsubr
          endchar
        </CharString>
        <CharString name="Sacute">
          -16 281 736 -101 callsubr
          -30 -880 -98 callgsubr
          endchar
        </CharString>
        <CharString name="Sacute.loclPLK">
          -16 281 736 -60 callgsubr
          20 -879 -98 callgsubr
          endchar
        </CharString>
        <CharString name="Scaron">
          -16 273 733 -97 callgsubr
          163 -880 -98 callgsubr
          endchar
        </CharString>
        <CharString name="Scedilla">
          -16 336 -4 callgsubr
          54 82 14 67 46 -45 19 -53 3 hvcurveto
          3 23 rlineto
          146 10 100 62 140 248 -418 -61 122 vvcurveto
          40 45 24 85 79 49 -31 -51 vhcurveto
          -9 144 12 vlineto
          141 -122 61 -148 -161 -117 -62 -130 vhcurveto
          -255 418 76 -144 vvcurveto
          -41 -36 -31 -104 -95 -53 38 58 vhcurveto
          5 1 9 2 vvcurveto
          -147 hlineto
          -5 -1 -9 -8 vvcurveto
          -129 113 -72 137 -10 vhcurveto
          -10 -67 rlineto
          41 hlineto
          32 10 -8 -16 -19 -17 -5 -28 hvcurveto
          -88 -49 hlineto
          -5 30 40 -3 34 hhcurveto
          endchar
        </CharString>
        <CharString name="Scircumflex">
          -43 callsubr
          57 -880 -98 callgsubr
          endchar
        </CharString>
        <CharString name="Scommaaccent">
          -63 callsubr
          -62 -218 -72 callsubr
        </CharString>
        <CharString name="T">
          -32 callsubr
          endchar
        </CharString>
        <CharString name="Tbar">
          -72 233 hmoveto
          145 352 89 91 -89 118 -39 callsubr
          -118 -89 -91 89 hlineto
          endchar
        </CharString>
        <CharString name="Tcaron">
          -72 245 733 -97 callgsubr
          94 -868 rmoveto
          -27 callgsubr
          endchar
        </CharString>
        <CharString name="Thorn">
          -16 67 hmoveto
          145 129 -13 callgsubr
          -182 107 -145 0 callsubr
          -434 rmoveto
          204 169 -15 callgsubr
          endchar
        </CharString>
        <CharString name="U">
          39 360 -12 rmoveto
          -102 callsubr
          endchar
        </CharString>
        <CharString name="Uacute">
          -8 callgsubr
          736 -10 callsubr
          -880 rmoveto
          -102 callsubr
          endchar
        </CharString>
        <CharString name="Ubreve">
          39 360 -68 callgsubr
          -743 vmoveto
          -102 callsubr
          endchar
        </CharString>
        <CharString name="Ucircumflex">
          -42 callgsubr
          60 -880 rmoveto
          -102 callsubr
          endchar
        </CharString>
        <CharString name="Udieresis">
          39 197 -69 callgsubr
          -47 -880 rmoveto
          -102 callsubr
          endchar
        </CharString>
        <CharString name="Ugrave">
          -8 callgsubr
          -64 callgsubr
          160 -877 rmoveto
          -102 callsubr
          endchar
        </CharString>
        <CharString name="Uhorn">
          39 598 868 -86 callsubr
          endchar
        </CharString>
        <CharString name="Uhungarumlaut">
          39 221 736 -101 callsubr
          96 -132 -101 callsubr
          -115 -880 rmoveto
          -102 callsubr
          endchar
        </CharString>
        <CharString name="Umacron">
          39 208 756 -62 callgsubr
          152 -856 rmoveto
          -102 callsubr
          endchar
        </CharString>
        <CharString name="Uogonek">
          39 438 -38 callgsubr
          -24 vlineto
          -35 -13 25 26 23 13 23 11 15 -18 callgsubr
          28 71 86 142 vvcurveto
          431 -145 -424 vlineto
          -100 -56 -51 -94 -94 -54 51 100 vhcurveto
          424 -145 -431 vlineto
          -177 110 -90 183 vhcurveto
          -15 -21 -13 -25 -36 vvcurveto
          -67 55 -21 51 vhcurveto
          endchar
        </CharString>
        <CharString name="Uring">
          39 361 701 -76 callgsubr
          -1 -770 rmoveto
          -102 callsubr
          endchar
        </CharString>
        <CharString name="Utilde">
          39 193 746 -103 callgsubr
          167 -758 rmoveto
          -102 callsubr
          endchar
        </CharString>
        <CharString name="V">
          -16 252 hmoveto
          162 hlineto
          248 686 rlineto
          -151 hlineto
          -128 -376 rlineto
          -12 -34 -31 -108 0 vvcurveto
          -5 hlineto
          0 -33 108 -12 34 vhcurveto
          -129 376 rlineto
          -157 hlineto
          endchar
        </CharString>
        <CharString name="W">
          261 184 hmoveto
          -91 callgsubr
        </CharString>
        <CharString name="Wacute">
          261 419 736 -101 callsubr
          -314 -868 rmoveto
          -91 callgsubr
        </CharString>
        <CharString name="Wcircumflex">
          261 305 -76 callsubr
          -227 -868 rmoveto
          -91 callgsubr
        </CharString>
        <CharString name="Wdieresis">
          261 308 -69 callgsubr
          -334 -868 rmoveto
          -91 callgsubr
        </CharString>
        <CharString name="Wgrave">
          261 419 -64 callgsubr
          -127 -865 rmoveto
          -91 callgsubr
        </CharString>
        <CharString name="X">
          -16 0 vmoveto
          164 hlineto
          160 258 rlineto
          5 hlineto
          162 -258 rlineto
          175 hlineto
          -238 362 216 324 rlineto
          -164 hlineto
          -138 -222 rlineto
          -5 hlineto
          -139 222 rlineto
          -176 hlineto
          215 -326 rlineto
          endchar
        </CharString>
        <CharString name="Y">
          -16 262 hmoveto
          -84 callgsubr
          endchar
        </CharString>
        <CharString name="Y.loclGUA">
          -16 322 -12 -93 callgsubr
        </CharString>
        <CharString name="Yacute">
          -16 281 736 -101 callsubr
          -98 -868 rmoveto
          -84 callgsubr
          endchar
        </CharString>
        <CharString name="Yacute.loclGUA">
          -16 281 736 -101 callsubr
          -38 -880 -93 callgsubr
        </CharString>
        <CharString name="Ycircumflex">
          -43 callsubr
          -11 -868 rmoveto
          -84 callgsubr
          endchar
        </CharString>
        <CharString name="Ycircumflex.loclGUA">
          -43 callsubr
          49 -880 -93 callgsubr
        </CharString>
        <CharString name="Ydieresis">
          -16 170 -69 callgsubr
          -118 -868 rmoveto
          -84 callgsubr
          endchar
        </CharString>
        <CharString name="Ydieresis.loclGUA">
          -16 170 -69 callgsubr
          -58 -880 -93 callgsubr
        </CharString>
        <CharString name="Ygrave">
          -16 281 -64 callgsubr
          89 -865 rmoveto
          -84 callgsubr
          endchar
        </CharString>
        <CharString name="Ygrave.loclGUA">
          -16 281 -64 callgsubr
          149 -877 -93 callgsubr
        </CharString>
        <CharString name="Z">
          -72 17 hmoveto
          -75 callsubr
          endchar
        </CharString>
        <CharString name="Zacute">
          -5 callsubr
          736 -101 callsubr
          -315 -868 rmoveto
          -75 callsubr
          endchar
        </CharString>
        <CharString name="Zacute.loclPLK">
          -5 callsubr
          736 -60 callgsubr
          -265 -867 rmoveto
          -75 callsubr
          endchar
        </CharString>
        <CharString name="Zcaron">
          -72 245 733 -97 callgsubr
          -122 -868 rmoveto
          -75 callsubr
          endchar
        </CharString>
        <CharString name="Zdotaccent">
          -72 238 739 -87 callsubr
          -221 -869 rmoveto
          -75 callsubr
          endchar
        </CharString>
        <CharString name="a">
          192 -12 -107 callsubr
        </CharString>
        <CharString name="aacute">
          225 -83 callgsubr
          -112 -735 -107 callsubr
        </CharString>
        <CharString name="abreve">
          277 586 -99 callgsubr
        </CharString>
        <CharString name="acircumflex">
          -62 callsubr
          -25 -735 -107 callsubr
        </CharString>
        <CharString name="acute">
          -350 75 -83 callgsubr
          endchar
        </CharString>
        <CharString name="acute.loclPLK">
          -350 90 591 -60 callgsubr
          endchar
        </CharString>
        <CharString name="adieresis">
          114 -70 callsubr
          -132 -735 -107 callsubr
        </CharString>
        <CharString name="ae">
          206 232 -12 -71 callgsubr
        </CharString>
        <CharString name="aeacute">
          206 392 -83 callgsubr
          -239 -735 -71 callgsubr
        </CharString>
        <CharString name="agrave">
          225 -67 callgsubr
          75 -732 -107 callsubr
        </CharString>
        <CharString name="amacron">
          125 611 -62 callgsubr
          67 -711 -107 callsubr
        </CharString>
        <CharString name="ampersand">
          39 322 -12 rmoveto
          179 95 85 131 hvcurveto
          88 95 112 -232 -203 vlineto
          -65 -43 -37 -92 -90 -50 31 67 77 60 18 66 vhcurveto
          66 112 -69 hlineto
          -58 -50 32 56 59 43 36 90 84 43 -29 -57 hvcurveto
          -19 137 28 vlineto
          114 -107 74 -155 -164 -110 -66 -122 -86 52 -39 71 -29 vhcurveto
          -4 vlineto
          -80 -22 -60 -50 -96 vvcurveto
          -122 116 -74 163 vhcurveto
          endchar
        </CharString>
        <CharString name="aogonek">
          476 -4 callgsubr
          35 36 14 0 hvcurveto
          55 -24 vlineto
          -38 -10 20 21 32 43 28 29 16 hvcurveto
          96 -28 vlineto
          -18 -17 10 25 hvcurveto
          232 vlineto
          108 -68 63 -147 -129 -85 -58 -88 -9 0 -7 1 -6 vhcurveto
          132 15 hlineto
          21 18 26 67 63 11 -33 -40 vhcurveto
          -37 vlineto
          -188 -130 -44 -142 -128 106 -20 57 85 44 28 41 35 hvcurveto
          6 hlineto
          10 -33 24 -23 35 -8 rrcurveto
          -34 -24 -27 -30 -43 vvcurveto
          -59 50 -19 56 vhcurveto
          -241 278 rmoveto
          -47 -20 24 31 65 87 15 92 hvcurveto
          -16 vlineto
          -66 -30 -53 -82 vhcurveto
          endchar
        </CharString>
        <CharString name="approxequal">
          -134 27 252 rmoveto
          -30 callsubr
          -331 vmoveto
          -30 callsubr
          endchar
        </CharString>
        <CharString name="aring">
          278 -36 callsubr
          -86 -625 -107 callsubr
        </CharString>
        <CharString name="aringacute">
          225 777 -101 callsubr
          -26 -353 -76 callgsubr
          -86 -625 -107 callsubr
        </CharString>
        <CharString name="arrowboth">
          317 239 69 rmoveto
          52 hlineto
          -53 129 rlineto
          526 hlineto
          -53 -129 rlineto
          -2 callgsubr
          173 rlineto
          -52 hlineto
          53 -129 rlineto
          -526 hlineto
          53 129 -8 callsubr
        </CharString>
        <CharString name="arrowdown">
          -183 241 -207 rmoveto
          21 hlineto
          174 -12 callsubr
          722 -108 -722 -7 callsubr
          endchar
        </CharString>
        <CharString name="arrowleft">
          317 239 68 rmoveto
          52 hlineto
          -53 130 rlineto
          722 108 -722 hlineto
          53 130 -8 callsubr
        </CharString>
        <CharString name="arrowright">
          317 711 68 rmoveto
          -2 callgsubr
          174 rlineto
          -52 hlineto
          53 -130 rlineto
          -722 -108 722 hlineto
          endchar
        </CharString>
        <CharString name="arrowup">
          -183 197 -207 rmoveto
          109 722 hlineto
          129 -53 rlineto
          52 vlineto
          -173 197 rlineto
          -21 hlineto
          -173 -197 rlineto
          -52 vlineto
          129 53 rlineto
          endchar
        </CharString>
        <CharString name="arrowupdn">
          -183 239 -207 rmoveto
          21 hlineto
          173 -12 callsubr
          526 -23 callgsubr
          -526 -7 callsubr
          endchar
        </CharString>
        <CharString name="arrowupdnbse">
          -183 239 -100 rmoveto
          21 hlineto
          173 -12 callsubr
          419 -23 callgsubr
          -419 -7 callsubr
          1 -330 rmoveto
          367 86 -367 hlineto
          endchar
        </CharString>
        <CharString name="asciicircum">
          -214 25 294 rmoveto
          110 hlineto
          99 270 101 -270 rlineto
          110 hlineto
          -157 392 rlineto
          -107 hlineto
          endchar
        </CharString>
        <CharString name="asciitilde">
          -99 41 199 rmoveto
          0 60 72 85 vhcurveto
          78 58 -60 76 hhcurveto
          97 48 72 0 hvcurveto
          119 vlineto
          0 -60 -72 -85 vhcurveto
          -78 -58 60 -76 hhcurveto
          -97 -48 -72 0 hvcurveto
          endchar
        </CharString>
        <CharString name="asterisk">
          -294 151 362 rmoveto
          83 hlineto
          -17 119 96 -74 41 71 -112 46 112 47 -41 70 -96 -73 17 118 rlineto
          -83 hlineto
          17 -119 -96 74 -41 -70 112 -47 -112 -46 41 -71 96 74 rlineto
          endchar
        </CharString>
        <CharString name="at">
          292 469 -153 rmoveto
          51 93 11 16 50 hvcurveto
          82 vlineto
          -18 -43 -96 -14 -55 hhcurveto
          -234 -108 113 224 243 146 117 234 208 145 -88 -211 -157 -63 -51 -55 -23 -16 9 32 hvcurveto
          211 vlineto
          98 -62 57 -134 -117 -77 -53 -80 -8 0 -6 1 -6 vhcurveto
          120 14 hlineto
          19 16 24 61 57 10 -30 -37 vhcurveto
          -33 vlineto
          -171 -118 -40 -130 -116 96 -18 52 77 41 25 38 31 hvcurveto
          6 hlineto
          0 25 -62 96 98 138 72 227 268 -188 109 -253 -253 -216 -117 -319 -289 165 -126 265 vhcurveto
          7 272 rmoveto
          -42 -19 22 28 59 79 14 84 hvcurveto
          -15 vlineto
          -60 -27 -48 -75 vhcurveto
          endchar
        </CharString>
        <CharString name="atilde">
          110 601 -103 callgsubr
          82 -613 -107 callsubr
        </CharString>
        <CharString name="b">
          -72 364 -12 rmoveto
          129 81 85 191 189 -87 85 -116 -71 -55 -26 -47 -31 hvcurveto
          -6 258 -137 -723 117 hlineto
          9 69 rlineto
          7 hlineto
          -54 34 59 -27 67 hhcurveto
          -44 119 rmoveto
          -78 -34 52 95 hvcurveto
          16 vlineto
          95 34 54 -27 callsubr
        </CharString>
        <CharString name="backslash">
          -405 181 -49 rmoveto
          96 hlineto
          -181 784 rlineto
          -95 hlineto
          endchar
        </CharString>
        <CharString name="bar">
          -403 90 5 callsubr
          100 896 -100 hlineto
          endchar
        </CharString>
        <CharString name="braceleft">
          -294 343 -159 rmoveto
          77 vlineto
          -46 -53 10 51 66 -5 63 -2 67 hvcurveto
          68 -3 -33 40 -92 hhcurveto
          10 vlineto
          92 34 40 68 2 hvcurveto
          2 67 5 63 66 vvcurveto
          51 56 10 43 vhcurveto
          77 vlineto
          -134 -83 -22 -126 hvcurveto
          -193 vlineto
          -45 -51 -15 -46 vhcurveto
          -92 vlineto
          46 51 -15 -45 hvcurveto
          -193 vlineto
          -126 83 -22 134 vhcurveto
          endchar
        </CharString>
        <CharString name="braceright">
          -294 46 -159 rmoveto
          134 83 22 126 hvcurveto
          193 vlineto
          45 51 15 46 vhcurveto
          92 vlineto
          -46 -51 15 45 hvcurveto
          193 vlineto
          126 -83 22 -134 vhcurveto
          -77 vlineto
          43 56 -10 -51 -66 5 -63 2 -67 hvcurveto
          -68 2 34 -40 92 hhcurveto
          -10 vlineto
          -92 -33 -40 -68 -3 hvcurveto
          -2 -67 -5 -63 -66 vvcurveto
          -51 -53 -10 -46 vhcurveto
          endchar
        </CharString>
        <CharString name="bracketleft">
          -350 71 -161 rmoveto
          216 95 -100 706 100 95 -216 hlineto
          endchar
        </CharString>
        <CharString name="bracketright">
          -350 46 -161 rmoveto
          216 896 -216 -95 100 -706 -100 hlineto
          endchar
        </CharString>
        <CharString name="breve">
          -350 166 -74 callgsubr
          endchar
        </CharString>
        <CharString name="brokenbar">
          -403 90 357 rmoveto
          100 366 -100 hlineto
          -896 vmoveto
          100 366 -100 hlineto
          endchar
        </CharString>
        <CharString name="bullet">
          -333 175 208 rmoveto
          75 61 60 75 75 -61 61 -75 -75 -60 -61 -75 -75 60 -60 75 hvcurveto
          endchar
        </CharString>
        <CharString name="c">
          289 -12 -85 callsubr
        </CharString>
        <CharString name="cacute">
          225 -83 callgsubr
          -15 -735 -85 callsubr
        </CharString>
        <CharString name="cacute.loclPLK">
          225 591 -60 callgsubr
          35 -734 -85 callsubr
        </CharString>
        <CharString name="caron">
          -350 106 588 -97 callgsubr
          endchar
        </CharString>
        <CharString name="ccaron">
          217 588 -97 callgsubr
          178 -735 -85 callsubr
        </CharString>
        <CharString name="ccedilla">
          293 98 rmoveto
          -83 -33 56 101 hvcurveto
          16 vlineto
          101 32 56 77 60 35 -35 -65 vhcurveto
          138 hlineto
          141 -94 69 -136 -166 -85 -86 -189 -166 65 -87 129 -18 vhcurveto
          -10 -69 -69 callsubr
          3 22 rlineto
          122 9 80 68 132 vvcurveto
          -132 hlineto
          -64 -37 -36 -57 vhcurveto
          endchar
        </CharString>
        <CharString name="ccircumflex">
          -62 callsubr
          72 -735 -85 callsubr
        </CharString>
        <CharString name="cdotaccent">
          210 -39 callgsubr
          79 -736 -85 callsubr
        </CharString>
        <CharString name="cedilla">
          -350 149 -4 callgsubr
          54 82 14 67 46 -45 19 -53 3 hvcurveto
          6 44 rlineto
          -85 hlineto
          -13 -88 rlineto
          41 hlineto
          32 10 -8 -16 -19 -17 -5 -28 hvcurveto
          -88 -49 hlineto
          -5 30 40 -3 34 hhcurveto
          endchar
        </CharString>
        <CharString name="cent">
          259 -49 rmoveto
          51 117 hlineto
          125 7 84 68 135 vvcurveto
          -132 hlineto
          -58 -30 -35 -47 -6 vhcurveto
          327 vlineto
          45 -9 26 -33 -56 vvcurveto
          138 hlineto
          133 -85 69 -124 7 vhcurveto
          106 -51 -106 vlineto
          -147 -10 -74 -87 -177 vvcurveto
          -178 74 -86 147 -10 vhcurveto
          112 vmoveto
          -58 14 -24 54 86 vvcurveto
          16 vlineto
          88 24 54 58 12 vhcurveto
          endchar
        </CharString>
        <CharString name="circumflex">
          -350 588 vmoveto
          111 hlineto
          56 69 55 -69 rlineto
          111 hlineto
          -105 -49 callsubr
          -122 hlineto
          endchar
        </CharString>
        <CharString name="colon">
          -350 97 389 rmoveto
          -58 callgsubr
          -526 vmoveto
          4 callgsubr
        </CharString>
        <CharString name="comma">
          -405 70 -45 callsubr
        </CharString>
        <CharString name="copyright">
          -57 callsubr
          81 vmoveto
          115 45 78 88 hvcurveto
          -74 hlineto
          -65 -24 -35 -62 -71 -29 41 103 105 31 40 69 63 19 -31 -69 vhcurveto
          78 hlineto
          108 -47 58 -113 -122 -57 -66 -145 -144 56 -66 123 vhcurveto
          endchar
        </CharString>
        <CharString name="currency">
          74 99 rmoveto
          55 58 rlineto
          -37 40 55 -18 54 hhcurveto
          54 55 18 37 40 hvcurveto
          55 -58 45 45 -54 56 rlineto
          34 42 16 54 55 vvcurveto
          55 -16 56 -34 39 vhcurveto
          55 54 -48 48 -57 -56 rlineto
          33 -38 -54 18 -53 hhcurveto
          -53 -54 -18 -33 -38 hvcurveto
          -57 56 -48 -48 55 -54 rlineto
          -34 -39 -16 -56 -55 vvcurveto
          -55 16 -54 34 -42 vhcurveto
          -54 -56 rlineto
          249 37 rmoveto
          -91 -72 79 91 89 73 79 90 90 73 -79 -89 -91 -72 -79 -91 hvcurveto
          endchar
        </CharString>
        <CharString name="d">
          -72 -75 callgsubr
          44 119 -44 callsubr
        </CharString>
        <CharString name="dagger">
          220 5 callsubr
          114 hlineto
          -20 598 206 -18 rlineto
          113 vlineto
          -206 -18 callsubr
          rlineto
          endchar
        </CharString>
        <CharString name="daggerdbl">
          224 5 callsubr
          108 hlineto
          -17 186 205 -17 rlineto
          113 vlineto
          -205 -18 20 169 -20 165 205 -18 rlineto
          113 vlineto
          -205 -18 callsubr
          -20 -165 20 -169 -205 18 rlineto
          -113 vlineto
          205 17 rlineto
          endchar
        </CharString>
        <CharString name="dcaron">
          36 -75 callgsubr
          346 454 -52 callgsubr
          -357 -452 -44 callsubr
        </CharString>
        <CharString name="dcroat">
          -72 598 658 rmoveto
          -58 65 -137 -65 -154 -71 154 -122 -6 hlineto
          47 -31 -55 26 -71 hhcurveto
          -116 -87 -85 -189 -191 81 -85 129 67 59 27 54 -6 callgsubr
          9 -5 callgsubr
          587 58 hlineto
          -195 -333 rmoveto
          -95 -34 -52 -78 -84 -29 52 95 vhcurveto
          18 vlineto
          95 29 52 84 78 34 -54 -95 vhcurveto
          endchar
        </CharString>
        <CharString name="degree">
          -283 200 386 rmoveto
          87 69 69 87 87 -69 69 -87 -87 -69 -69 -87 -87 69 -69 87 hvcurveto
          82 vmoveto
          -41 -33 33 41 41 33 32 41 41 32 -32 -41 -41 -32 -33 -41 hvcurveto
          endchar
        </CharString>
        <CharString name="dieresis">
          -350 2 -70 callsubr
          endchar
        </CharString>
        <CharString name="divide">
          -134 214 402 7 callgsubr
          -175 -309 rmoveto
          472 105 -472 hlineto
          175 -307 7 callgsubr
          endchar
        </CharString>
        <CharString name="dollar">
          253 -49 rmoveto
          51 117 hlineto
          123 6 89 45 119 vvcurveto
          117 -117 27 -95 22 vhcurveto
          110 vlineto
          41 -6 26 -20 -35 vvcurveto
          -1 128 vlineto
          1 1 11 11 vvcurveto
          84 -85 51 -111 7 vhcurveto
          106 -51 -106 vlineto
          -116 -7 -87 -53 -99 vvcurveto
          -111 109 -28 94 -23 vhcurveto
          -125 vlineto
          -44 5 -39 20 -1 44 rrcurveto
          7 -128 vlineto
          -1 -5 0 -3 -4 vvcurveto
          -95 77 -65 136 -7 vhcurveto
          349 vmoveto
          -42 11 -29 14 28 vvcurveto
          25 28 16 43 4 vhcurveto
          51 -344 rmoveto
          111 vlineto
          46 -13 34 -16 -32 vvcurveto
          -34 -39 -13 -41 -3 vhcurveto
          endchar
        </CharString>
        <CharString name="dotaccent">
          -350 100 -39 callgsubr
          endchar
        </CharString>
        <CharString name="dotbelowcomb">
          -683 -233 -173 -87 callsubr
          endchar
        </CharString>
        <CharString name="dotlessi">
          -405 71 hmoveto
          -54 callgsubr
        </CharString>
        <CharString name="e">
          288 -12 -105 callgsubr
          endchar
        </CharString>
        <CharString name="eacute">
          225 -83 callgsubr
          -16 -735 -105 callgsubr
          endchar
        </CharString>
        <CharString name="ebreve">
          277 -74 callgsubr
          11 -598 -105 callgsubr
          endchar
        </CharString>
        <CharString name="ecaron">
          217 588 -97 callgsubr
          177 -735 -105 callgsubr
          endchar
        </CharString>
        <CharString name="ecircumflex">
          -62 callsubr
          71 -735 -105 callgsubr
          endchar
        </CharString>
        <CharString name="edieresis">
          114 -70 callsubr
          -36 -735 -105 callgsubr
          endchar
        </CharString>
        <CharString name="edotaccent">
          210 -39 callgsubr
          78 -736 -105 callgsubr
          endchar
        </CharString>
        <CharString name="egrave">
          225 -67 callgsubr
          171 -732 -105 callgsubr
          endchar
        </CharString>
        <CharString name="eight">
          278 -12 rmoveto
          174 71 90 110 74 -33 59 -77 31 hvcurveto
          62 33 31 57 65 vvcurveto
          105 -77 86 -151 -151 -77 -86 -105 -65 30 -57 62 -33 vhcurveto
          -76 -31 -33 -59 -74 vvcurveto
          -110 71 -90 174 vhcurveto
          417 vmoveto
          -58 -31 32 59 59 31 33 58 57 33 -33 -59 -59 -33 -32 -57 hvcurveto
          -307 vmoveto
          -67 -37 36 63 63 37 36 67 67 37 -36 -63 -63 -37 -36 -67 hvcurveto
          endchar
        </CharString>
        <CharString name="ellipsis">
          317 98 hmoveto
          -58 callgsubr
          333 -137 rmoveto
          -58 callgsubr
          333 -137 rmoveto
          4 callgsubr
        </CharString>
        <CharString name="emacron">
          125 611 -62 callgsubr
          163 -711 -105 callgsubr
          endchar
        </CharString>
        <CharString name="emdash">
          317 221 vmoveto
          1000 98 -1000 hlineto
          endchar
        </CharString>
        <CharString name="endash">
          221 4 callsubr
        </CharString>
        <CharString name="eng">
          -72 405 -17 callgsubr
          394 vlineto
          136 -73 49 -101 -78 -52 -38 -43 -34 6 callgsubr
          -10 69 rlineto
          -117 -526 -17 callsubr
          hlineto
          63 45 50 62 57 34 -25 -68 vhcurveto
          -351 vlineto
          -28 -15 -15 -28 vhcurveto
          -52 -96 hlineto
          -8 22 41 -8 31 hhcurveto
          endchar
        </CharString>
        <CharString name="eogonek">
          449 -38 callgsubr
          -16 vlineto
          -43 -18 29 49 39 11 28 14 15 hvcurveto
          32 32 21 46 61 vvcurveto
          -135 hlineto
          -61 -40 -31 -56 -84 -29 47 90 -2 vhcurveto
          346 32 hlineto
          189 -79 86 -154 -168 -84 -73 callgsubr
          82 -86 165 25 24 3 7 23 vhcurveto
          -10 -22 -7 -25 -34 vvcurveto
          -75 54 -24 57 vhcurveto
          -272 504 rmoveto
          72 8 33 37 70 hhcurveto
          55 36 -31 -78 hvcurveto
          endchar
        </CharString>
        <CharString name="equal">
          -99 56 308 -7 callgsubr
          -316 vmoveto
          472 103 -472 hlineto
          endchar
        </CharString>
        <CharString name="equivalence">
          -100 56 442 rmoveto
          -9 callgsubr
          -317 vmoveto
          -9 callgsubr
          -316 vmoveto
          473 103 -473 hlineto
          endchar
        </CharString>
        <CharString name="estimated">
          -83 302 -12 rmoveto
          104 78 50 80 42 hvcurveto
          -34 21 rlineto
          -67 -34 -68 -42 -88 hhcurveto
          -62 -50 19 34 -37 hvcurveto
          165 406 5 vlineto
          165 -98 120 -159 -160 -97 -116 -159 -159 97 -116 160 vhcurveto
          -149 302 rmoveto
          152 vlineto
          34 37 50 20 62 hhcurveto
          61 50 -20 -35 38 hvcurveto
          -151 vlineto
          endchar
        </CharString>
        <CharString name="eth">
          -72 305 -12 rmoveto
          -26 callgsubr
          85 186 135 -38 113 -83 99 hvcurveto
          92 7 rlineto
          73 vlineto
          -159 -12 -18 17 -20 16 -22 16 rlinecurve
          -161 hlineto
          -4 -5 22 -18 22 -18 20 -19 rlinecurve
          -101 -7 rlineto
          -73 vlineto
          166 12 23 -28 20 -27 18 -27 rlinecurve
          -5 -4 rlineto
          12 -27 -32 7 -31 hhcurveto
          -143 -74 -104 -165 -186 89 -85 178 -40 callgsubr
          -91 -35 53 98 hvcurveto
          16 vlineto
          97 35 52 91 92 35 -52 -97 1 callgsubr
          -98 -35 -53 -92 vhcurveto
          endchar
        </CharString>
        <CharString name="exclam">
          -350 125 197 rmoveto
          -32 callgsubr
          -27 -197 rmoveto
          4 callgsubr
        </CharString>
        <CharString name="exclamdbl">
          -79 125 197 rmoveto
          -32 callgsubr
          271 hmoveto
          -32 callgsubr
          -298 -197 rmoveto
          -58 callgsubr
          271 -137 rmoveto
          4 callgsubr
        </CharString>
        <CharString name="exclamdown">
          -350 98 388 rmoveto
          -58 callgsubr
          -8 -686 rmoveto
          153 hlineto
          -36 489 rlineto
          -82 hlineto
          -12 -163 -11 -163 -12 -163 rrcurveto
          endchar
        </CharString>
        <CharString name="f">
          -350 84 hmoveto
          -20 callgsubr
          hlineto
          -65 callsubr
          vlineto
          endchar
        </CharString>
        <CharString name="f_f">
          -17 597 619 rmoveto
          50 96 hlineto
          8 -21 -38 8 -29 hhcurveto
          -110 -32 -73 -72 hvcurveto
          -60 -196 50 vlineto
          -65 callsubr
          -414 137 414 196 -414 -20 callgsubr
          vlineto
          28 15 15 28 vhcurveto
          endchar
        </CharString>
        <CharString name="fi">
          -72 84 hmoveto
          -20 callgsubr
          hlineto
          -65 callsubr
          vlineto
          320 185 -31 callsubr
          endchar
        </CharString>
        <CharString name="five">
          277 -12 rmoveto
          148 92 85 151 151 -88 71 -111 -60 -35 -18 -16 -25 hvcurveto
          9 152 rlineto
          276 122 -397 hlineto
          -27 -380 130 -16 rlineto
          25 19 26 23 44 hhcurveto
          56 42 -36 -78 -83 -39 -41 -60 -63 -37 43 70 hvcurveto
          -141 hlineto
          -140 96 -85 145 vhcurveto
          endchar
        </CharString>
        <CharString name="fiveeighths">
          151 100 -12 -61 callsubr
          -476 -379 rmoveto
          79 49 45 81 81 -48 38 -60 -25 -20 -7 -7 -12 hvcurveto
          4 62 rlineto
          143 74 -214 hlineto
          -14 -204 76 -10 rlineto
          14 10 12 11 20 hhcurveto
          25 19 -16 -36 -38 -18 -20 -26 -29 -16 18 30 hvcurveto
          -84 hlineto
          -73 51 -43 78 vhcurveto
          492 -331 -83 callsubr
        </CharString>
        <CharString name="fl">
          -72 84 hmoveto
          -20 callgsubr
          hlineto
          -65 callsubr
          vlineto
          320 -414 rmoveto
          -29 callsubr
          endchar
        </CharString>
        <CharString name="florin">
          107 -183 rmoveto
          109 48 73 72 15 hvcurveto
          89 416 rlineto
          93 hlineto
          23 112 rlineto
          -93 hlineto
          19 86 rlineto
          28 6 18 15 28 hhcurveto
          50 hlineto
          20 96 rlineto
          8 -19 -36 8 -29 hhcurveto
          -110 -48 -73 -72 -15 hvcurveto
          -21 -96 rlineto
          -75 hlineto
          -23 -112 rlineto
          75 hlineto
          -87 -406 rlineto
          -28 -6 -17 -15 -28 hhcurveto
          -50 hlineto
          -20 -96 rlineto
          -8 19 36 -8 29 hhcurveto
          endchar
        </CharString>
        <CharString name="four">
          314 hmoveto
          137 146 82 112 -82 338 -63 hlineto
          -15 -54 -30 -80 -29 -53 rrcurveto
          -151 -175 vlineto
          42 54 122 210 42 176 rrcurveto
          -141 hlineto
          -43 -171 -63 -144 -78 -125 rrcurveto
          -112 294 vlineto
          endchar
        </CharString>
        <CharString name="fraction">
          -516 -234 -12 -61 callsubr
          endchar
        </CharString>
        <CharString name="franc">
          60 hmoveto
          145 256 87 -256 137 192 hlineto
          96 24 51 63 vhcurveto
          38 128 hlineto
          0 -16 9 -24 -47 -25 -44 -53 -15 6 callgsubr
          -11 85 rlineto
          -117 -85 -87 184 212 123 -357 hlineto
          endchar
        </CharString>
        <CharString name="g">
          -72 155 -182 -104 callsubr
        </CharString>
        <CharString name="g_tilde.loclGUA">
          -72 138 601 -103 callgsubr
          17 -783 -104 callsubr
        </CharString>
        <CharString name="gbreve">
          -72 305 -74 callgsubr
          -150 -768 -104 callsubr
        </CharString>
        <CharString name="gcaron">
          -72 245 588 -97 callgsubr
          16 -905 -104 callsubr
        </CharString>
        <CharString name="gcircumflex">
          -72 145 588 rmoveto
          111 hlineto
          52 69 51 -69 rlineto
          111 hlineto
          -101 -49 callsubr
          -122 hlineto
          -92 -905 rmoveto
          249 hlineto
          109 87 64 98 86 -61 55 -75 hvcurveto
          -239 hlineto
          -20 -13 13 16 19 16 11 23 hvcurveto
          80 hlineto
          148 78 71 108 49 -18 42 -32 30 hvcurveto
          69 16 44 43 75 vvcurveto
          -104 hlineto
          -19 -19 -57 -68 -15 vhcurveto
          10 -30 -36 5 -40 hhcurveto
          -152 -81 -71 -108 -62 26 -49 51 -31 hvcurveto
          -53 -13 -40 -33 -46 vvcurveto
          -36 19 -27 32 -16 vhcurveto
          -46 -21 -35 -34 -52 vvcurveto
          -72 59 -49 72 vhcurveto
          148 455 rmoveto
          -65 -32 32 54 54 32 32 65 65 33 -32 -54 -54 -33 -32 -65 hvcurveto
          -88 -360 rmoveto
          -31 -22 19 28 26 23 20 30 hvcurveto
          193 hlineto
          30 24 -16 -30 -28 -26 -19 -34 hvcurveto
          endchar
        </CharString>
        <CharString name="gcommaaccent">
          -72 237 585 rmoveto
          138 98 -55 hlineto
          55 97 rlineto
          -72 hlineto
          -66 -109 rlineto
          -82 -853 -104 callsubr
        </CharString>
        <CharString name="gdotaccent">
          -72 238 -39 callgsubr
          -83 -906 -104 callsubr
        </CharString>
        <CharString name="germandbls">
          -72 65 hmoveto
          137 519 hlineto
          68 43 38 66 67 30 -40 -53 -50 -28 -40 -48 vhcurveto
          -71 -121 74 hlineto
          64 34 -47 -58 -57 -34 -48 -64 hvcurveto
          -74 -111 87 hlineto
          139 84 89 118 87 -45 74 -90 24 hvcurveto
          4 vlineto
          63 23 48 57 80 vvcurveto
          106 -83 73 -149 -140 -110 -64 -160 vhcurveto
          endchar
        </CharString>
        <CharString name="grave">
          -350 183 -67 callgsubr
          endchar
        </CharString>
        <CharString name="greater">
          -99 56 2 -26 callsubr
          endchar
        </CharString>
        <CharString name="greaterequal">
          -134 38 123 -26 callsubr
          -241 vmoveto
          -9 callgsubr
          endchar
        </CharString>
        <CharString name="guillemotleft">
          195 126 -33 callgsubr
          359 -200 -33 callgsubr
          endchar
        </CharString>
        <CharString name="guillemotright">
          39 126 -33 callsubr
          115 -200 -33 callsubr
          endchar
        </CharString>
        <CharString name="guilsinglleft">
          -350 195 126 -33 callgsubr
          endchar
        </CharString>
        <CharString name="guilsinglright">
          -350 39 126 -33 callsubr
          endchar
        </CharString>
        <CharString name="h">
          -72 71 hmoveto
          -74 callsubr
          -73 -49 -34 -39 -32 vhcurveto
          -7 258 -10 callgsubr
          endchar
        </CharString>
        <CharString name="hbar">
          -72 71 hmoveto
          -74 callsubr
          -73 -49 -34 -39 -32 vhcurveto
          -7 122 154 71 -154 65 -137 -65 -58 -71 58 hlineto
          endchar
        </CharString>
        <CharString name="hcircumflex">
          -72 -27 748 -104 callgsubr
          -8 -883 rmoveto
          -74 callsubr
          -73 -49 -34 -39 -32 vhcurveto
          -7 258 -10 callgsubr
          endchar
        </CharString>
        <CharString name="hookabovecomb">
          -683 -220 591 -101 callgsubr
          endchar
        </CharString>
        <CharString name="house">
          -79 77 hmoveto
          450 310 hlineto
          -225 253 -225 -253 rlineto
          69 -240 rmoveto
          213 vlineto
          156 178 156 -178 rlineto
          -213 vlineto
          endchar
        </CharString>
        <CharString name="hungarumlaut">
          -350 7 -50 callsubr
          endchar
        </CharString>
        <CharString name="hyphen">
          -11 callgsubr
        </CharString>
        <CharString name="i">
          -405 71 599 -31 callsubr
          endchar
        </CharString>
        <CharString name="i.loclTRK">
          -405 71 -39 callgsubr
          -724 vmoveto
          -54 callgsubr
        </CharString>
        <CharString name="iacute">
          -405 71 -83 callgsubr
          -79 -1 callsubr
          endchar
        </CharString>
        <CharString name="iacute_j.loclNLD">
          71 -83 callgsubr
          214 -132 -101 callsubr
          -372 -1 callsubr
          277 -708 -81 callgsubr
        </CharString>
        <CharString name="ibreve">
          -405 141 -74 callgsubr
          -70 -586 -56 callgsubr
        </CharString>
        <CharString name="icircumflex">
          -405 -27 -79 callgsubr
          -8 -1 callsubr
          endchar
        </CharString>
        <CharString name="idieresis">
          -405 -25 -70 callsubr
          -114 -1 callsubr
          endchar
        </CharString>
        <CharString name="igrave">
          -405 107 -67 callgsubr
          72 -720 -56 callgsubr
        </CharString>
        <CharString name="ij">
          71 -16 callsubr
          278 -124 -44 callgsubr
          -278 -1 callsubr
          277 -708 -81 callgsubr
        </CharString>
        <CharString name="imacron">
          -405 -13 639 -62 callgsubr
          84 -727 -56 callgsubr
        </CharString>
        <CharString name="infinity">
          30 196 138 rmoveto
          68 45 38 56 45 hvcurveto
          -83 58 59 -11 41 hhcurveto
          78 74 60 104 97 -70 58 -82 -78 -42 -58 -32 -30 hvcurveto
          59 -43 -48 31 -67 hhcurveto
          -89 -68 -65 -96 -97 71 -61 78 hvcurveto
          13 83 rmoveto
          -39 -29 35 41 51 30 27 35 42 19 -18 -64 42 hvcurveto
          -35 -24 -34 -37 -42 hhcurveto
          299 hmoveto
          -33 -25 12 65 -47 hvcurveto
          57 45 21 20 34 hhcurveto
          41 26 -34 -45 -32 -22 -43 -40 hvcurveto
          endchar
        </CharString>
        <CharString name="integral">
          -409 23 -141 rmoveto
          101 86 17 95 149 -28 613 0 hvcurveto
          -3 callgsubr
          -150 27 -610 0 hvcurveto
          -44 -32 -14 -43 vhcurveto
          endchar
        </CharString>
        <CharString name="integralbt">
          -79 177 -250 rmoveto
          101 87 18 94 80 -7 477 -7 440 hvcurveto
          -114 hlineto
          17 -983 rlineto
          -43 -34 -14 -43 vhcurveto
          endchar
        </CharString>
        <CharString name="integraltp">
          -79 253 -250 rmoveto
          114 hlineto
          -17 983 rlineto
          -3 callgsubr
          -80 7 -477 7 -440 hvcurveto
          endchar
        </CharString>
        <CharString name="intersection">
          39 94 hmoveto
          92 410 hlineto
          105 78 74 97 96 77 -74 -105 vhcurveto
          -410 92 410 vlineto
          153 -119 113 -147 -147 -119 -113 -153 vhcurveto
          endchar
        </CharString>
        <CharString name="iogonek">
          -405 206 724 6 callsubr
          2 -594 rmoveto
          -60 callsubr
          -523 vlineto
          -26 -26 -24 -30 -49 -35 callsubr
          28 13 14 hvcurveto
          endchar
        </CharString>
        <CharString name="itilde">
          -405 -29 601 -103 callgsubr
          100 -601 -56 callgsubr
        </CharString>
        <CharString name="j">
          -405 71 -16 callsubr
          -1 -905 -81 callgsubr
        </CharString>
        <CharString name="jcircumflex">
          -405 -27 -79 callgsubr
          -9 -905 -81 callgsubr
        </CharString>
        <CharString name="k">
          -51 callgsubr
          406 -137 vlineto
          endchar
        </CharString>
        <CharString name="kcommaaccent">
          -51 callgsubr
          406 -137 vlineto
          164 -953 -72 callsubr
        </CharString>
        <CharString name="kgreenlandic">
          -51 callgsubr
          209 -137 vlineto
          endchar
        </CharString>
        <CharString name="l">
          -405 -20 callsubr
          endchar
        </CharString>
        <CharString name="lacute">
          -405 86 751 -101 callsubr
          -94 -883 rmoveto
          -29 callsubr
          endchar
        </CharString>
        <CharString name="lcaron">
          -298 -20 callsubr
          190 -281 -14 callgsubr
        </CharString>
        <CharString name="lcommaaccent">
          -405 -20 callsubr
          2 -953 -72 callsubr
        </CharString>
        <CharString name="ldot">
          -315 -20 callsubr
          186 -434 rmoveto
          4 callgsubr
        </CharString>
        <CharString name="less">
          -99 528 2 -22 callsubr
          endchar
        </CharString>
        <CharString name="lessequal">
          -134 512 123 -22 callsubr
          1 -319 rmoveto
          -9 callgsubr
          endchar
        </CharString>
        <CharString name="lira">
          -1 callgsubr
          82 rlineto
          158 92 -158 53 158 92 -156 81 -28 callsubr
          -68 -75 -92 75 -53 -75 -92 75 -82 -62 vlineto
          endchar
        </CharString>
        <CharString name="logicalnot">
          -99 444 193 rmoveto
          98 262 -500 -98 402 hlineto
          endchar
        </CharString>
        <CharString name="longs">
          -405 84 hmoveto
          137 576 hlineto
          -65 callsubr
          vlineto
          endchar
        </CharString>
        <CharString name="lozenge">
          -83 221 -133 rmoveto
          127 hlineto
          178 431 -178 430 rlineto
          -127 hlineto
          -179 -430 rlineto
          242 -300 rmoveto
          -116 300 116 299 116 -299 rlineto
          endchar
        </CharString>
        <CharString name="lslash">
          -405 71 hmoveto
          137 344 hlineto
          70 48 rlineto
          102 vlineto
          -70 -48 rlineto
          277 -137 -371 vlineto
          -71 -48 rlineto
          -102 vlineto
          71 48 rlineto
          endchar
        </CharString>
        <CharString name="m">
          206 71 hmoveto
          -17 callsubr
          hlineto
          63 39 50 54 47 30 -55 callgsubr
          304 vlineto
          63 38 50 54 47 30 -55 callgsubr
          353 vlineto
          136 -71 49 -93 -74 -50 -38 -43 -32 vhcurveto
          -8 hlineto
          58 -27 -50 23 -61 hhcurveto
          -71 -48 -38 -43 -31 hvcurveto
          -7 hlineto
          -10 69 rlineto
          -117 hlineto
          endchar
        </CharString>
        <CharString name="macron">
          -350 14 611 -62 callgsubr
          endchar
        </CharString>
        <CharString name="minus">
          -99 56 204 -7 callgsubr
          endchar
        </CharString>
        <CharString name="minute">
          -443 51 506 -21 callgsubr
          endchar
        </CharString>
        <CharString name="multiply">
          -99 148 37 rmoveto
          144 145 144 -144 73 73 -144 143 145 145 -73 74 -145 -145 -145 144 -72 -73 144 -144 -144 -144 rlineto
          endchar
        </CharString>
        <CharString name="n">
          -72 71 hmoveto
          -82 callgsubr
        </CharString>
        <CharString name="nacute">
          -5 callsubr
          -83 callgsubr
          -261 -723 rmoveto
          -82 callgsubr
        </CharString>
        <CharString name="nacute.loclPLK">
          -5 callsubr
          591 -60 callgsubr
          -211 -722 rmoveto
          -82 callgsubr
        </CharString>
        <CharString name="napostrophe">
          25 -3 442 -52 callgsubr
          116 -559 rmoveto
          -82 callgsubr
        </CharString>
        <CharString name="ncaron">
          -72 245 588 -97 callgsubr
          -68 -723 rmoveto
          -82 callgsubr
        </CharString>
        <CharString name="ncommaaccent">
          -72 71 hmoveto
          -80 callsubr
          169 -756 -72 callsubr
        </CharString>
        <CharString name="nine">
          267 -12 rmoveto
          155 92 89 286 254 -95 81 -158 -133 -98 -87 -139 -130 62 -95 141 88 52 54 0 hvcurveto
          -124 -2 -10 -78 -89 hhcurveto
          -59 -22 38 66 hvcurveto
          -139 hlineto
          -122 64 -93 151 vhcurveto
          368 vmoveto
          -66 -30 46 70 65 30 49 66 66 32 -49 -65 -70 -32 -46 -66 hvcurveto
          endchar
        </CharString>
        <CharString name="notequal">
          -134 109 25 rmoveto
          86 hlineto
          38 71 rlineto
          277 103 -222 hlineto
          58 109 rlineto
          164 104 -109 hlineto
          39 72 rlineto
          -86 hlineto
          -39 -72 rlineto
          -277 -104 222 hlineto
          -58 -109 rlineto
          -164 -103 109 hlineto
          endchar
        </CharString>
        <CharString name="ntilde">
          -72 138 601 -103 callgsubr
          -67 -601 rmoveto
          -82 callgsubr
        </CharString>
        <CharString name="numbersign">
          37 -12 rmoveto
          104 hlineto
          35 175 rlineto
          120 hlineto
          -35 -175 rlineto
          104 hlineto
          35 175 rlineto
          98 108 -76 hlineto
          25 123 rlineto
          97 108 -75 -3 callsubr
          -120 -3 callsubr
          -86 -108 64 hlineto
          -25 -123 rlineto
          -85 -108 63 hlineto
          126 108 rmoveto
          25 123 rlineto
          120 hlineto
          -25 -123 rlineto
          endchar
        </CharString>
        <CharString name="o">
          -72 305 -12 rmoveto
          -105 callsubr
          endchar
        </CharString>
        <CharString name="oacute">
          -5 callsubr
          -83 callgsubr
          -27 -735 rmoveto
          -105 callsubr
          endchar
        </CharString>
        <CharString name="oacute.loclPLK">
          -5 callsubr
          591 -60 callgsubr
          23 -734 rmoveto
          -105 callsubr
          endchar
        </CharString>
        <CharString name="obreve">
          -72 305 -74 callgsubr
          -598 vmoveto
          -105 callsubr
          endchar
        </CharString>
        <CharString name="ocircumflex">
          -22 callgsubr
          60 -735 rmoveto
          -105 callsubr
          endchar
        </CharString>
        <CharString name="odieresis">
          -72 142 -70 callsubr
          -47 -735 rmoveto
          -105 callsubr
          endchar
        </CharString>
        <CharString name="oe">
          261 301 -12 rmoveto
          84 64 23 46 44 hvcurveto
          -46 42 61 -23 80 hhcurveto
          133 100 61 137 hvcurveto
          -135 hlineto
          -61 -40 -31 -56 -84 -29 47 90 -2 vhcurveto
          346 32 hlineto
          189 -79 86 -154 -80 -61 -23 -47 -42 vhcurveto
          47 -44 -64 23 -84 hhcurveto
          -175 -88 -73 callgsubr
          88 -86 175 hvcurveto
          264 334 rmoveto
          72 8 33 37 70 hhcurveto
          55 36 -31 -78 hvcurveto
          -466 -222 rmoveto
          -88 -34 54 101 hvcurveto
          16 vlineto
          101 34 54 88 89 34 -54 -101 1 callgsubr
          -101 -34 -54 -89 vhcurveto
          endchar
        </CharString>
        <CharString name="ogonek">
          -350 179 -35 callgsubr
        </CharString>
        <CharString name="ograve">
          -5 callsubr
          -67 callgsubr
          160 -732 rmoveto
          -105 callsubr
          endchar
        </CharString>
        <CharString name="ohorn">
          -72 512 686 -92 callsubr
          endchar
        </CharString>
        <CharString name="ohungarumlaut">
          -72 166 -50 callsubr
          -115 -735 rmoveto
          -105 callsubr
          endchar
        </CharString>
        <CharString name="omacron">
          -72 153 611 -62 callgsubr
          152 -711 rmoveto
          -105 callsubr
          endchar
        </CharString>
        <CharString name="one">
          85 hmoveto
          445 112 -147 574 -71 hlineto
          -69 -40 -99 -35 -60 -6 rrcurveto
          -85 162 -408 -161 vlineto
          endchar
        </CharString>
        <CharString name="oneeighth">
          151 110 -12 -61 callsubr
          -610 -53 callsubr
          616 -416 -83 callsubr
        </CharString>
        <CharString name="onehalf">
          151 100 -12 -61 callsubr
          -600 -53 callsubr
          481 -404 rmoveto
          256 75 -154 hlineto
          9 9 16 12 16 11 rrcurveto
          48 32 63 43 78 vvcurveto
          29 -11 80 -109 -70 -61 -30 -72 -8 1 -11 2 -9 vhcurveto
          80 18 hlineto
          31 16 12 29 28 13 -19 -17 -14 -3 -16 -9 -12 vhcurveto
          -15 -21 -24 -18 -27 -20 rrcurveto
          -46 -36 -48 -37 -65 vvcurveto
          endchar
        </CharString>
        <CharString name="onequarter">
          151 100 -12 -61 callsubr
          -600 -53 callsubr
          614 -403 -40 callsubr
        </CharString>
        <CharString name="ordfeminine">
          -313 328 471 rmoveto
          -11 -11 6 16 hvcurveto
          140 vlineto
          66 -41 38 -89 -78 -52 -35 -54 -5 0 -4 1 -4 vhcurveto
          80 10 hlineto
          12 11 16 40 38 8 -20 -24 vhcurveto
          -22 vlineto
          -114 -80 -27 -86 -78 64 -12 35 52 26 17 24 21 hvcurveto
          4 hlineto
          -26 8 25 -15 32 hhcurveto
          24 16 5 4 8 hvcurveto
          58 vlineto
          -121 71 rmoveto
          -40 -19 -33 -50 -28 -12 15 18 40 52 9 57 vhcurveto
          endchar
        </CharString>
        <CharString name="ordmasculine">
          -318 183 404 rmoveto
          109 54 52 115 114 -54 52 -109 -108 -54 -52 -114 -115 54 -52 108 hvcurveto
          68 vmoveto
          -55 -22 33 61 hvcurveto
          9 vlineto
          61 22 33 55 56 21 -33 -61 vhcurveto
          -9 vlineto
          -61 -21 -33 -56 vhcurveto
          endchar
        </CharString>
        <CharString name="orthogonal">
          296 177 hmoveto
          625 89 -536 536 -89 hlineto
          endchar
        </CharString>
        <CharString name="oslash">
          -72 45 -49 -67 callsubr
        </CharString>
        <CharString name="oslashacute">
          -5 callsubr
          -83 callgsubr
          -287 -772 -67 callsubr
        </CharString>
        <CharString name="otilde">
          -72 138 601 -103 callgsubr
          167 -613 rmoveto
          -105 callsubr
          endchar
        </CharString>
        <CharString name="p">
          -23 callsubr
          -81 85 -129 -67 -59 -27 -54 -34 hvcurveto
          -7 hlineto
          -9 69 rlineto
          -117 hlineto
          249 -419 rmoveto
          -78 -34 54 95 hvcurveto
          16 vlineto
          95 34 52 -27 callsubr
        </CharString>
        <CharString name="paragraph">
          233 -168 rmoveto
          84 793 66 -793 84 793 61 61 -266 hlineto
          -136 -108 -58 -160 -145 105 -70 110 hvcurveto
          endchar
        </CharString>
        <CharString name="parenleft">
          -350 217 -157 rmoveto
          88 hlineto
          -74 122 -57 169 157 vvcurveto
          156 57 167 74 122 vhcurveto
          -88 hlineto
          -107 -123 -59 -160 -165 vvcurveto
          -164 59 -158 107 -123 vhcurveto
          endchar
        </CharString>
        <CharString name="parenright">
          -350 28 -157 rmoveto
          88 hlineto
          107 123 59 158 164 vvcurveto
          165 -59 160 -107 123 vhcurveto
          -88 hlineto
          74 -122 57 -167 -156 vvcurveto
          -157 -57 -169 -74 -122 vhcurveto
          endchar
        </CharString>
        <CharString name="partialdiff">
          -189 216 -12 rmoveto
          153 86 148 247 250 -116 102 -118 -56 -41 -13 -16 -31 hvcurveto
          -104 vlineto
          18 25 35 16 48 hhcurveto
          77 58 -96 -122 -9 0 -19 -1 -6 hvcurveto
          -4 hlineto
          24 -12 -37 41 -58 hhcurveto
          -98 -91 -93 -152 -116 61 -100 120 hvcurveto
          7 102 rmoveto
          -40 -23 45 66 82 38 69 49 44 28 -40 -33 9 hvcurveto
          -97 -7 -39 -92 -59 hhcurveto
          endchar
        </CharString>
        <CharString name="percent">
          206 213 337 -19 callgsubr
          -71 -337 rmoveto
          102 hlineto
          507 686 rlineto
          -104 hlineto
          -434 -268 rmoveto
          -52 -11 37 55 hvcurveto
          15 vlineto
          55 11 37 52 51 12 -37 -55 vhcurveto
          -15 vlineto
          -55 -12 -37 -51 vhcurveto
          464 -430 -19 callgsubr
          81 vmoveto
          -51 -12 38 54 hvcurveto
          15 vlineto
          54 12 38 51 52 11 -38 -54 vhcurveto
          -15 vlineto
          -54 -11 -38 -52 vhcurveto
          endchar
        </CharString>
        <CharString name="period">
          -405 70 hmoveto
          4 callgsubr
        </CharString>
        <CharString name="periodcentered">
          -350 96 289 rmoveto
          4 callgsubr
        </CharString>
        <CharString name="perthousand">
          317 161 337 rmoveto
          -36 callgsubr
          -54 -337 rmoveto
          88 hlineto
          378 686 rlineto
          -90 hlineto
          -322 -268 rmoveto
          -41 callsubr
          358 -429 rmoveto
          -36 callgsubr
          318 hmoveto
          -36 callgsubr
          -318 81 rmoveto
          -41 callsubr
          318 hmoveto
          -41 callsubr
          endchar
        </CharString>
        <CharString name="peseta">
          411 615 -12 rmoveto
          49 31 16 0 hvcurveto
          62 vlineto
          -49 30 58 -29 81 hhcurveto
          112 84 42 128 hvcurveto
          208 -248 -68 92 vvcurveto
          27 21 15 31 35 24 -19 -40 vhcurveto
          -1 123 vlineto
          1 10 0 7 6 vvcurveto
          90 -78 53 -101 -29 -27 -4 -8 -25 vhcurveto
          -158 148 -106 hlineto
          -23 -148 rlineto
          -28 hlineto
          100 -21 -74 60 -130 hhcurveto
          -180 -686 143 236 27 hlineto
          143 78 67 111 16 hvcurveto
          23 -285 hlineto
          -70 27 -71 91 vhcurveto
          -405 371 rmoveto
          204 29 -15 callgsubr
          629 -265 rmoveto
          -34 -36 16 50 -2 hvcurveto
          7 -123 vlineto
          -1 -6 0 -3 -3 vvcurveto
          -20 3 -18 5 -17 vhcurveto
          -8 hlineto
          -28 -15 15 28 hvcurveto
          271 54 vlineto
          -2 -11 -1 -12 -13 -203 248 67 -101 vvcurveto
          -37 -33 -10 -27 vhcurveto
          endchar
        </CharString>
        <CharString name="pi">
          83 103 hmoveto
          136 hlineto
          40 81 32 216 9 117 rrcurveto
          166 -267 hlineto
          -80 8 -51 11 -16 vhcurveto
          134 hlineto
          -10 30 -6 44 82 vvcurveto
          258 104 vlineto
          10 112 rlineto
          -503 hlineto
          -108 -60 -11 -19 -33 hvcurveto
          15 -95 rlineto
          9 29 29 4 78 hhcurveto
          -4 -117 -35 -199 -42 -98 rrcurveto
          endchar
        </CharString>
        <CharString name="plus">
          -99 240 hmoveto
          -16 callgsubr
          endchar
        </CharString>
        <CharString name="plusminus">
          -134 223 149 rmoveto
          -16 callgsubr
          -184 -352 -7 callgsubr
          endchar
        </CharString>
        <CharString name="product">
          140 130 -128 rmoveto
          145 726 272 -726 144 726 91 125 -741 -125 89 hlineto
          endchar
        </CharString>
        <CharString name="q">
          -72 403 5 callsubr
          137 699 -117 hlineto
          -9 -69 rlineto
          -7 hlineto
          54 -34 -59 27 -67 hhcurveto
          -129 -81 -85 -191 -189 87 -85 116 71 55 26 47 31 hvcurveto
          6 hlineto
          -112 46 rmoveto
          -84 -29 52 95 hvcurveto
          18 vlineto
          95 29 52 84 78 34 -52 -95 1 callgsubr
          -95 -34 -54 -78 vhcurveto
          endchar
        </CharString>
        <CharString name="question">
          -72 235 197 rmoveto
          125 28 hlineto
          123 184 -5 177 vvcurveto
          117 -90 61 -146 -168 -83 -92 -112 -19 4 -16 0 vhcurveto
          139 hlineto
          0 -1 11 16 vvcurveto
          32 13 59 86 92 5 -52 -23 vhcurveto
          -97 -160 9 -174 vvcurveto
          -6 -240 rmoveto
          4 callgsubr
        </CharString>
        <CharString name="questiondown">
          -72 251 389 rmoveto
          -58 callgsubr
          59 -698 rmoveto
          168 83 92 112 19 -4 16 0 hvcurveto
          -139 hlineto
          0 1 -11 -16 vvcurveto
          -32 -13 -59 -86 -92 -5 52 23 vhcurveto
          97 160 -9 174 vvcurveto
          43 -125 -28 vlineto
          -123 -184 5 -177 vvcurveto
          -117 90 -61 146 vhcurveto
          endchar
        </CharString>
        <CharString name="quotedbl">
          -209 75 407 -25 callsubr
          242 -132 -25 callsubr
          endchar
        </CharString>
        <CharString name="quotedblbase">
          -183 70 -43 callgsubr
          167 -45 callsubr
        </CharString>
        <CharString name="quotedblleft">
          -183 70 393 -29 callgsubr
          222 -125 -29 callgsubr
          endchar
        </CharString>
        <CharString name="quotedblright">
          -183 70 393 rmoveto
          -61 callgsubr
          167 -45 callsubr
        </CharString>
        <CharString name="quoteleft">
          -405 70 393 -29 callgsubr
          endchar
        </CharString>
        <CharString name="quotereversed">
          -405 136 393 rmoveto
          72 hlineto
          -55 156 rlineto
          55 137 -138 -125 hlineto
          endchar
        </CharString>
        <CharString name="quoteright">
          -405 70 393 rmoveto
          -61 callgsubr
          endchar
        </CharString>
        <CharString name="quotesinglbase">
          -405 70 -45 callsubr
        </CharString>
        <CharString name="quotesingle">
          -445 71 407 -25 callsubr
          endchar
        </CharString>
        <CharString name="r">
          -34 callsubr
          endchar
        </CharString>
        <CharString name="racute">
          -294 142 -83 callgsubr
          -150 -723 rmoveto
          -77 callgsubr
          endchar
        </CharString>
        <CharString name="radical">
          -134 276 -148 rmoveto
          110 hlineto
          162 1005 rlineto
          -79 hlineto
          -130 -835 -11 31 -12 30 -11 31 rlinecurve
          -103 281 -172 -72 27 -80 60 23 rlineto
          endchar
        </CharString>
        <CharString name="rcaron">
          -294 134 588 -97 callgsubr
          43 -723 rmoveto
          -77 callgsubr
          endchar
        </CharString>
        <CharString name="rcommaaccent">
          -34 callsubr
          3 -756 -72 callsubr
        </CharString>
        <CharString name="registered">
          -57 callsubr
          -148 88 rmoveto
          78 156 99 hlineto
          78 -156 rlineto
          84 hlineto
          -87 170 rlineto
          47 21 22 42 54 vvcurveto
          75 -43 51 -86 vhcurveto
          -192 hlineto
          78 -190 rmoveto
          124 104 vlineto
          38 22 -21 -39 -41 -25 -23 -35 hvcurveto
          endchar
        </CharString>
        <CharString name="revlogicalnot">
          -99 42 193 rmoveto
          98 164 402 98 -500 hlineto
          endchar
        </CharString>
        <CharString name="ring">
          -350 167 -36 callsubr
          endchar
        </CharString>
        <CharString name="s">
          -59 callgsubr
          endchar
        </CharString>
        <CharString name="sacute">
          225 -83 callgsubr
          -23 -735 -96 callsubr
          endchar
        </CharString>
        <CharString name="sacute.loclPLK">
          225 591 -60 callgsubr
          27 -734 -96 callsubr
          endchar
        </CharString>
        <CharString name="scaron">
          217 588 -97 callgsubr
          170 -735 -96 callsubr
          endchar
        </CharString>
        <CharString name="scedilla">
          522 158 5 callgsubr
          -329 -68 92 vvcurveto
          27 36 15 53 53 36 -18 -40 1 vhcurveto
          -2 133 vlineto
          1 1 11 11 vvcurveto
          90 -96 53 -123 -129 -102 -53 -107 vhcurveto
          -203 329 67 -101 vvcurveto
          -37 -53 -10 -46 -51 -53 16 50 -2 vhcurveto
          7 -133 vlineto
          0 -1 -7 -5 vvcurveto
          -88 67 -63 119 -13 vhcurveto
          -10 -68 -69 callsubr
          3 22 rlineto
          120 7 85 45 117 vvcurveto
          endchar
        </CharString>
        <CharString name="scircumflex">
          -62 callsubr
          64 -735 -96 callsubr
          endchar
        </CharString>
        <CharString name="scommaaccent">
          -59 callgsubr
          -69 -218 -72 callsubr
        </CharString>
        <CharString name="second">
          -204 51 506 -21 callgsubr
          166 -180 -21 callgsubr
          endchar
        </CharString>
        <CharString name="section">
          272 -4 callgsubr
          129 97 53 107 58 -27 41 -39 30 hvcurveto
          53 34 30 48 51 193 -318 6 97 vvcurveto
          33 33 21 49 47 32 -19 -36 vhcurveto
          -3 139 vlineto
          1 1 11 11 vvcurveto
          90 -94 53 -120 -129 -97 -53 -107 -59 27 -41 39 -29 vhcurveto
          -53 -35 -30 -48 -50 -193 318 -6 -97 vvcurveto
          -34 -33 -22 -49 -48 -31 18 40 vhcurveto
          2 -139 vlineto
          -1 -1 -11 -11 vvcurveto
          -90 94 -53 120 vhcurveto
          75 338 rmoveto
          -85 34 -87 33 80 vvcurveto
          20 15 20 18 16 vhcurveto
          85 -38 88 -28 -80 vvcurveto
          -21 -14 -20 -20 -16 vhcurveto
          endchar
        </CharString>
        <CharString name="semicolon">
          -350 97 389 rmoveto
          -58 callgsubr
          -682 vmoveto
          -61 callgsubr
          endchar
        </CharString>
        <CharString name="seven">
          134 hmoveto
          148 hlineto
          -1 24 0 8 19 vvcurveto
          210 137 198 110 136 vhcurveto
          91 -493 -122 337 vlineto
          -123 -139 -115 -205 -220 vvcurveto
          endchar
        </CharString>
        <CharString name="seveneighths">
          151 83 -12 -61 callsubr
          -516 -374 rmoveto
          87 hlineto
          -1 13 0 10 10 vvcurveto
          103 70 102 56 68 vhcurveto
          56 -263 -74 165 vlineto
          -74 -86 -40 -100 -102 vvcurveto
          532 -336 -83 callsubr
        </CharString>
        <CharString name="six">
          295 -12 rmoveto
          133 98 87 139 130 -62 95 -141 -88 -52 -54 0 hvcurveto
          124 2 10 78 89 hhcurveto
          59 22 -38 -66 hvcurveto
          139 hlineto
          122 -64 93 -151 -155 -92 -89 -286 -254 95 -81 158 vhcurveto
          -6 112 rmoveto
          -66 -32 49 65 70 32 46 66 66 30 -46 -70 -65 -30 -49 -66 hvcurveto
          endchar
        </CharString>
        <CharString name="slash">
          -405 1 -49 rmoveto
          96 hlineto
          180 784 rlineto
          -95 hlineto
          endchar
        </CharString>
        <CharString name="space">
          -405 endchar
        </CharString>
        <CharString name="sterling">
          -1 callgsubr
          170 rlineto
          158 112 -156 118 -28 callsubr
          -105 -75 -112 75 -170 -62 vlineto
          endchar
        </CharString>
        <CharString name="summation">
          30 59 -128 rmoveto
          631 125 -447 4 hlineto
          277 314 -254 279 rlineto
          4 405 125 -602 -114 vlineto
          282 -310 -292 -327 rlineto
          endchar
        </CharString>
        <CharString name="t">
          -350 212 -12 -70 callgsubr
          endchar
        </CharString>
        <CharString name="tbar">
          -350 212 -12 rmoveto
          30 39 8 8 21 hvcurveto
          96 -48 vlineto
          -28 -15 15 28 hvcurveto
          111 91 71 -91 89 91 112 -91 148 -111 vlineto
          -23 -148 rlineto
          -66 -112 63 -89 -63 -71 63 -125 hlineto
          -70 31 -71 107 vhcurveto
          endchar
        </CharString>
        <CharString name="tcaron">
          -204 349 442 -52 callgsubr
          -192 -571 -70 callgsubr
          endchar
        </CharString>
        <CharString name="thorn">
          -23 callsubr
          -82 85 -121 -71 -55 -26 -47 -31 hvcurveto
          -6 272 -10 callgsubr
          249 -630 rmoveto
          -78 -34 54 95 hvcurveto
          16 vlineto
          95 34 52 -27 callsubr
        </CharString>
        <CharString name="three">
          280 -12 rmoveto
          140 99 74 122 91 -52 55 -70 22 hvcurveto
          4 vlineto
          61 29 47 44 81 vvcurveto
          122 -93 66 -137 -132 -95 -74 -114 vhcurveto
          -28 139 19 vlineto
          57 35 28 56 52 34 -25 -60 -65 -41 -31 -52 vhcurveto
          -54 -112 51 hlineto
          58 52 -19 -80 -65 -41 -29 -59 -68 -37 32 59 hvcurveto
          21 -139 -18 vlineto
          -125 87 -81 159 vhcurveto
          endchar
        </CharString>
        <CharString name="threeeighths">
          151 168 -57 callgsubr
          -68 -337 -61 callsubr
          16 -710 -83 callsubr
        </CharString>
        <CharString name="threequarters">
          151 169 -57 callgsubr
          -69 -337 -61 callsubr
          14 -697 -40 callsubr
        </CharString>
        <CharString name="tilde">
          -350 -1 601 -103 callgsubr
          endchar
        </CharString>
        <CharString name="trademark">
          317 217 280 rmoveto
          77 333 138 73 -354 -73 139 hlineto
          257 -334 rmoveto
          71 301 2 hlineto
          101 -301 rlineto
          72 hlineto
          98 294 rlineto
          6 -294 77 407 -112 hlineto
          -100 -303 rlineto
          -4 hlineto
          -97 303 rlineto
          -114 hlineto
          endchar
        </CharString>
        <CharString name="two">
          43 hmoveto
          480 122 -311 hlineto
          6 10 8 9 11 10 rrcurveto
          80 73 202 79 194 vvcurveto
          51 -19 150 -205 -131 -114 -61 -147 -24 4 -16 0 vhcurveto
          136 41 hlineto
          66 36 29 63 63 28 -43 -38 -32 -9 -31 -16 -25 vhcurveto
          -81 -125 -231 -63 -193 vvcurveto
          endchar
        </CharString>
        <CharString name="u">
          -72 242 -12 -103 callsubr
          endchar
        </CharString>
        <CharString name="uacute">
          -72 251 -83 callgsubr
          -88 -735 -103 callsubr
          endchar
        </CharString>
        <CharString name="ubreve">
          -72 303 -74 callgsubr
          -61 -598 -103 callsubr
          endchar
        </CharString>
        <CharString name="ucircumflex">
          -72 137 -79 callgsubr
          -1 -735 -103 callsubr
          endchar
        </CharString>
        <CharString name="udieresis">
          -72 140 -70 callsubr
          -108 -735 -103 callsubr
          endchar
        </CharString>
        <CharString name="ugrave">
          -72 251 -67 callgsubr
          99 -732 -103 callsubr
          endchar
        </CharString>
        <CharString name="uhorn">
          -72 502 723 -87 callgsubr
          endchar
        </CharString>
        <CharString name="uhungarumlaut">
          -72 164 -50 callsubr
          -176 -735 -103 callsubr
          endchar
        </CharString>
        <CharString name="umacron">
          -72 151 611 -62 callgsubr
          91 -711 -103 callsubr
          endchar
        </CharString>
        <CharString name="underscore">
          -160 4 callsubr
        </CharString>
        <CharString name="underscoredbl">
          -131 -153 vmoveto
          552 91 -552 hlineto
          -250 vmoveto
          552 91 -552 hlineto
          endchar
        </CharString>
        <CharString name="uni00A0">
          -405 endchar
        </CharString>
        <CharString name="uni00AD">
          -11 callgsubr
        </CharString>
        <CharString name="uni00B2">
          -350 41 -52 callsubr
          endchar
        </CharString>
        <CharString name="uni00B3">
          -350 168 -57 callgsubr
          endchar
        </CharString>
        <CharString name="uni00B5">
          -48 callsubr
        </CharString>
        <CharString name="uni00B9">
          -350 55 330 rmoveto
          239 75 -74 281 -43 hlineto
          -35 -20 -53 -18 -34 -3 rrcurveto
          -55 82 -185 -82 vlineto
          endchar
        </CharString>
        <CharString name="uni0162">
          -72 378 hmoveto
          561 -39 callsubr
          -561 28 vlineto
          -11 -77 -69 callsubr
          5 33 rlineto
          endchar
        </CharString>
        <CharString name="uni0163">
          -350 213 -33 rmoveto
          3 21 29 1 37 7 20 8 rlinecurve
          96 -48 vlineto
          -28 -15 15 28 hvcurveto
          271 91 112 -91 148 -111 vlineto
          -23 -148 rlineto
          -66 -112 63 -285 hlineto
          -48 15 -49 44 -26 vhcurveto
          -12 -83 -69 callsubr
          endchar
        </CharString>
        <CharString name="uni018F">
          75 376 -12 rmoveto
          225 109 111 240 247 -115 112 -227 -191 -135 -79 -173 hvcurveto
          143 hlineto
          95 76 41 103 131 59 -67 -136 6 vhcurveto
          -518 -48 hlineto
          -239 117 -104 217 vhcurveto
          2 117 rmoveto
          -109 -75 47 121 hvcurveto
          364 hlineto
          -116 -13 -52 -52 -115 hhcurveto
          endchar
        </CharString>
        <CharString name="uni019D">
          39 3 callgsubr
          420 vlineto
          18 -3 42 0 vhcurveto
          5 3 rlineto
          0 19 -38 20 -28 vhcurveto
          265 -376 rlineto
          141 686 -141 -379 hlineto
          -11 3 -47 0 vhcurveto
          -5 -3 rlineto
          0 -27 49 -13 18 vhcurveto
          -264 373 rlineto
          -141 -713 hlineto
          -12 callgsubr
        </CharString>
        <CharString name="uni01C4">
          650 967 733 -97 callgsubr
          -794 -868 rmoveto
          -59 callsubr
        </CharString>
        <CharString name="uni01C5">
          539 911 588 -97 callgsubr
          -738 -723 rmoveto
          -79 callsubr
          392 -123 rmoveto
          -80 callgsubr
          endchar
        </CharString>
        <CharString name="uni01C6">
          428 -75 callgsubr
          553 600 -97 callgsubr
          -62 -723 -46 callsubr
        </CharString>
        <CharString name="uni01C7">
          484 67 hmoveto
          -46 callgsubr
          805 -698 -77 callsubr
        </CharString>
        <CharString name="uni01C8">
          206 682 -16 callsubr
          -615 -723 rmoveto
          -46 callgsubr
          614 -868 -81 callgsubr
        </CharString>
        <CharString name="uni01C9">
          -20 callsubr
          278 -124 -44 callgsubr
          -1 -905 -81 callgsubr
        </CharString>
        <CharString name="uni01CA">
          595 -48 callgsubr
          916 -698 -77 callsubr
        </CharString>
        <CharString name="uni01CB">
          317 793 -16 callsubr
          -726 -723 rmoveto
          -94 callgsubr
          725 -868 -81 callgsubr
        </CharString>
        <CharString name="uni01CC">
          206 682 -16 callsubr
          -611 -723 rmoveto
          -80 callsubr
          610 -708 -81 callgsubr
        </CharString>
        <CharString name="uni01CD">
          39 300 733 -97 callgsubr
          -192 -868 -102 callgsubr
        </CharString>
        <CharString name="uni01CE">
          217 588 -97 callgsubr
          81 -735 -107 callsubr
        </CharString>
        <CharString name="uni01CF">
          -405 78 733 -97 callgsubr
          95 -868 -56 callsubr
        </CharString>
        <CharString name="uni01D0">
          -405 78 588 -97 callgsubr
          99 -1 callsubr
          endchar
        </CharString>
        <CharString name="uni01D1">
          95 328 733 -97 callgsubr
          167 -880 -106 callgsubr
          endchar
        </CharString>
        <CharString name="uni01D2">
          -72 245 588 -97 callgsubr
          166 -735 rmoveto
          -105 callsubr
          endchar
        </CharString>
        <CharString name="uni01D3">
          39 300 733 -97 callgsubr
          166 -880 rmoveto
          -102 callsubr
          endchar
        </CharString>
        <CharString name="uni01D4">
          -72 243 588 -97 callgsubr
          105 -735 -103 callsubr
          endchar
        </CharString>
        <CharString name="uni01D5">
          39 208 923 -62 callgsubr
          -11 -261 -95 callsubr
          -47 -880 rmoveto
          -102 callsubr
          endchar
        </CharString>
        <CharString name="uni01D6">
          -72 151 778 -62 callgsubr
          -11 -261 -95 callsubr
          -108 -735 -103 callsubr
          endchar
        </CharString>
        <CharString name="uni01D7">
          -8 callgsubr
          903 -101 callsubr
          -190 -285 -95 callsubr
          -47 -880 rmoveto
          -102 callsubr
          endchar
        </CharString>
        <CharString name="uni01D8">
          -72 251 758 -101 callsubr
          -190 -285 -95 callsubr
          -108 -735 -103 callsubr
          endchar
        </CharString>
        <CharString name="uni01D9">
          39 300 900 -97 callgsubr
          3 -285 -95 callsubr
          -47 -880 rmoveto
          -102 callsubr
          endchar
        </CharString>
        <CharString name="uni01DA">
          -72 243 755 -97 callgsubr
          3 -285 -95 callsubr
          -108 -735 -103 callsubr
          endchar
        </CharString>
        <CharString name="uni01DB">
          -8 callgsubr
          903 -100 callsubr
          -3 -282 -95 callsubr
          -47 -880 rmoveto
          -102 callsubr
          endchar
        </CharString>
        <CharString name="uni01DC">
          -72 251 758 -100 callsubr
          -3 -282 -95 callsubr
          -108 -735 -103 callsubr
          endchar
        </CharString>
        <CharString name="uni01EA">
          95 737 343 rmoveto
          242 -132 113 -216 -215 -132 -113 -242 -242 132 -113 215 11 11 0 1 11 vhcurveto
          -17 -21 -13 -26 -36 -35 callsubr
          27 13 14 hvcurveto
          131 42 77 110 184 vvcurveto
          -546 -15 rmoveto
          30 vlineto
          136 66 81 132 133 66 -81 -136 vhcurveto
          -30 vlineto
          -47 callgsubr
          endchar
        </CharString>
        <CharString name="uni01EB">
          -72 573 263 rmoveto
          189 -89 86 -179 -178 -89 -73 callgsubr
          89 -86 178 vhcurveto
          17 hlineto
          -16 -21 -13 -25 -36 -31 callgsubr
          27 18 27 13 15 hvcurveto
          96 34 48 83 139 vvcurveto
          -394 -8 rmoveto
          16 vlineto
          101 35 54 91 92 35 -54 -101 1 callgsubr
          -34 callgsubr
          endchar
        </CharString>
        <CharString name="uni01F1">
          650 67 hmoveto
          -59 callsubr
        </CharString>
        <CharString name="uni01F2">
          539 67 hmoveto
          -79 callsubr
          392 -123 rmoveto
          -80 callgsubr
          endchar
        </CharString>
        <CharString name="uni01F3">
          428 -75 callgsubr
          385 12 -46 callsubr
        </CharString>
        <CharString name="uni01F4">
          95 549 865 -42 callsubr
          -77 -482 -98 callsubr
          endchar
        </CharString>
        <CharString name="uni01F5">
          -5 callsubr
          -83 callgsubr
          -177 -905 -104 callsubr
        </CharString>
        <CharString name="uni0200">
          39 241 -64 callgsubr
          283 -129 -100 callsubr
          -306 -865 -102 callgsubr
        </CharString>
        <CharString name="uni0201">
          158 -67 callgsubr
          283 -129 -100 callsubr
          -33 -732 -107 callsubr
        </CharString>
        <CharString name="uni0202">
          39 199 731 -88 callgsubr
          -197 -81 callsubr
          endchar
        </CharString>
        <CharString name="uni0203">
          116 586 -88 callgsubr
          76 -93 callsubr
          endchar
        </CharString>
        <CharString name="uni0204">
          -16 214 -64 callgsubr
          283 -129 -100 callsubr
          -214 -865 -82 callsubr
        </CharString>
        <CharString name="uni0205">
          158 -67 callgsubr
          283 -129 -100 callsubr
          63 -732 -105 callgsubr
          endchar
        </CharString>
        <CharString name="uni0206">
          -16 172 731 -88 callgsubr
          -105 -731 -82 callsubr
        </CharString>
        <CharString name="uni0207">
          116 586 -88 callgsubr
          172 -598 -105 callgsubr
          endchar
        </CharString>
        <CharString name="uni0208">
          -405 19 -64 callgsubr
          283 -129 -100 callsubr
          -19 -865 -56 callsubr
        </CharString>
        <CharString name="uni0209">
          -405 19 -67 callgsubr
          283 -129 -100 callsubr
          -15 -720 -56 callgsubr
        </CharString>
        <CharString name="uni020A">
          -405 -23 731 -88 callgsubr
          90 -731 -56 callsubr
        </CharString>
        <CharString name="uni020B">
          -405 -23 586 -88 callgsubr
          94 -586 -56 callgsubr
        </CharString>
        <CharString name="uni020C">
          95 269 -64 callgsubr
          283 -129 -100 callsubr
          53 -877 -106 callgsubr
          endchar
        </CharString>
        <CharString name="uni020D">
          -72 186 -67 callgsubr
          283 -129 -100 callsubr
          52 -732 rmoveto
          -105 callsubr
          endchar
        </CharString>
        <CharString name="uni020E">
          95 227 731 -88 callgsubr
          162 -743 -106 callgsubr
          endchar
        </CharString>
        <CharString name="uni020F">
          -72 144 586 -88 callgsubr
          161 -598 rmoveto
          -105 callsubr
          endchar
        </CharString>
        <CharString name="uni0210">
          39 241 -64 callgsubr
          283 -129 -100 callsubr
          -241 -865 rmoveto
          -89 callsubr
          endchar
        </CharString>
        <CharString name="uni0211">
          -294 75 -67 callgsubr
          283 -129 -100 callsubr
          -71 -720 rmoveto
          -77 callgsubr
          endchar
        </CharString>
        <CharString name="uni0212">
          39 199 731 -88 callgsubr
          -132 -731 rmoveto
          -89 callsubr
          endchar
        </CharString>
        <CharString name="uni0213">
          -294 33 586 -88 callgsubr
          38 -586 rmoveto
          -77 callgsubr
          endchar
        </CharString>
        <CharString name="uni0214">
          39 241 -64 callgsubr
          283 -129 -100 callsubr
          52 -877 rmoveto
          -102 callsubr
          endchar
        </CharString>
        <CharString name="uni0215">
          -72 184 -67 callgsubr
          283 -129 -100 callsubr
          -9 -732 -103 callsubr
          endchar
        </CharString>
        <CharString name="uni0216">
          39 199 731 -88 callgsubr
          161 -743 rmoveto
          -102 callsubr
          endchar
        </CharString>
        <CharString name="uni0217">
          -72 142 586 -88 callgsubr
          100 -598 -103 callsubr
          endchar
        </CharString>
        <CharString name="uni021A">
          -32 callsubr
          7 -791 -72 callsubr
        </CharString>
        <CharString name="uni021B">
          -350 212 -12 -70 callgsubr
          -101 -218 -72 callsubr
        </CharString>
        <CharString name="uni0232">
          -16 181 756 -62 callgsubr
          81 -844 rmoveto
          -84 callgsubr
          endchar
        </CharString>
        <CharString name="uni0232.loclGUA">
          -16 181 756 -62 callgsubr
          141 -856 -93 callgsubr
        </CharString>
        <CharString name="uni0233">
          125 611 -62 callgsubr
          26 -881 -97 callsubr
          endchar
        </CharString>
        <CharString name="uni0233.loclGUA">
          -72 153 611 -62 callgsubr
          131 -881 -94 callsubr
        </CharString>
        <CharString name="uni0237">
          -405 70 -182 -81 callgsubr
        </CharString>
        <CharString name="uni0259">
          274 -12 rmoveto
          163 84 88 187 187 -84 88 -165 -137 -99 -61 -137 hvcurveto
          135 hlineto
          61 38 31 62 78 32 -49 -88 1 vhcurveto
          -346 -32 hlineto
          -192 79 -83 159 vhcurveto
          -2 107 rmoveto
          -58 -36 29 80 hvcurveto
          202 hlineto
          -67 -7 -32 -42 -69 hhcurveto
          endchar
        </CharString>
        <CharString name="uni0272">
          -72 3 callgsubr
          345 vlineto
          -84 callsubr
          -78 -52 -38 -43 -34 6 callgsubr
          -10 69 rlineto
          -117 -553 hlineto
          -28 -15 -15 -28 vhcurveto
          -52 -96 hlineto
          -8 22 41 -8 31 hhcurveto
          endchar
        </CharString>
        <CharString name="uni02BC">
          -403 71 442 -14 callgsubr
        </CharString>
        <CharString name="uni02C9">
          -350 14 611 -62 callgsubr
          endchar
        </CharString>
        <CharString name="uni030F">
          -683 -218 -67 callgsubr
          283 -129 -100 callsubr
          endchar
        </CharString>
        <CharString name="uni0311">
          -683 -328 586 -88 callgsubr
          endchar
        </CharString>
        <CharString name="uni031B">
          -683 -178 686 rmoveto
          -137 69 vlineto
          -17 -42 -40 -23 -65 -9 rrcurveto
          -68 vlineto
          145 21 66 61 143 vvcurveto
          54 vlineto
          endchar
        </CharString>
        <CharString name="uni0326">
          -683 -233 -230 -72 callsubr
        </CharString>
        <CharString name="uni0328">
          -683 -154 -35 callgsubr
        </CharString>
        <CharString name="uni0394">
          36 1 hmoveto
          718 hlineto
          -268 686 rlineto
          -182 hlineto
          -77 -563 rmoveto
          0 23 47 19 50 vhcurveto
          76 206 rlineto
          13 34 30 101 0 vvcurveto
          5 hlineto
          0 30 -101 13 -34 vhcurveto
          78 -206 rlineto
          18 -48 23 -49 0 vvcurveto
          endchar
        </CharString>
        <CharString name="uni03A9">
          -65 callgsubr
        </CharString>
        <CharString name="uni03BC">
          -48 callsubr
        </CharString>
        <CharString name="uni1E0C">
          39 67 hmoveto
          -79 callsubr
          -58 -296 -87 callsubr
          endchar
        </CharString>
        <CharString name="uni1E0D">
          -72 -75 callgsubr
          44 119 -63 callgsubr
          -53 -280 -87 callsubr
          endchar
        </CharString>
        <CharString name="uni1E24">
          -25 callgsubr
          226 -859 -87 callsubr
          endchar
        </CharString>
        <CharString name="uni1E25">
          -72 71 hmoveto
          -74 callsubr
          -73 -49 -34 -39 -32 vhcurveto
          -7 258 -10 callgsubr
          167 -896 -87 callsubr
          endchar
        </CharString>
        <CharString name="uni1E44">
          39 293 739 -87 callsubr
          -226 -869 rmoveto
          -94 callgsubr
          endchar
        </CharString>
        <CharString name="uni1E45">
          -72 238 -39 callgsubr
          -167 -724 rmoveto
          -82 callgsubr
        </CharString>
        <CharString name="uni1E5A">
          -49 callgsubr
          -125 -550 -87 callsubr
          endchar
        </CharString>
        <CharString name="uni1E5B">
          -34 callsubr
          1 -699 -87 callsubr
          endchar
        </CharString>
        <CharString name="uni1E62">
          -63 callsubr
          -64 -161 -87 callsubr
          endchar
        </CharString>
        <CharString name="uni1E63">
          -59 callgsubr
          -71 -161 -87 callsubr
          endchar
        </CharString>
        <CharString name="uni1E6C">
          -32 callsubr
          5 -734 -87 callsubr
          endchar
        </CharString>
        <CharString name="uni1E6D">
          -350 212 -12 -70 callgsubr
          -103 -161 -87 callsubr
          endchar
        </CharString>
        <CharString name="uni1E92">
          -72 17 hmoveto
          -75 callsubr
          221 -241 -87 callsubr
          endchar
        </CharString>
        <CharString name="uni1E93">
          -183 21 hmoveto
          -80 callgsubr
          161 -234 -87 callsubr
          endchar
        </CharString>
        <CharString name="uni1E9E">
          115 67 hmoveto
          145 384 hlineto
          130 71 61 141 92 48 -35 -54 -39 -27 -45 -49 vhcurveto
          -191 -125 194 hlineto
          68 39 -31 -44 -39 -30 -38 -57 hvcurveto
          -214 -125 227 hlineto
          139 84 81 108 81 -48 57 -77 20 hvcurveto
          4 vlineto
          50 20 41 59 69 vvcurveto
          121 -124 78 -176 -216 -130 -103 -204 vhcurveto
          endchar
        </CharString>
        <CharString name="uni1EA0">
          39 2 hmoveto
          -106 callsubr
          -174 -425 -87 callsubr
          endchar
        </CharString>
        <CharString name="uni1EA1">
          192 -12 -107 callgsubr
          -25 -269 -87 callsubr
          endchar
        </CharString>
        <CharString name="uni1EA2">
          39 327 -72 callgsubr
          -325 -790 -102 callgsubr
        </CharString>
        <CharString name="uni1EA3">
          244 591 -101 callgsubr
          -52 -657 -107 callsubr
        </CharString>
        <CharString name="uni1EA4">
          39 455 831 -101 callsubr
          -340 -230 -104 callgsubr
          -298 -868 -102 callgsubr
        </CharString>
        <CharString name="uni1EA5">
          372 686 -101 callsubr
          -340 -230 -104 callgsubr
          -25 -735 -107 callsubr
        </CharString>
        <CharString name="uni1EA6">
          39 495 831 -100 callsubr
          -193 -227 -104 callgsubr
          -298 -868 -102 callgsubr
        </CharString>
        <CharString name="uni1EA7">
          412 686 -100 callsubr
          -193 -227 -104 callgsubr
          -25 -735 -107 callsubr
        </CharString>
        <CharString name="uni1EA8">
          39 474 831 -101 callgsubr
          -280 -152 -104 callgsubr
          -298 -868 -102 callgsubr
        </CharString>
        <CharString name="uni1EA9">
          391 686 -101 callgsubr
          -280 -152 -104 callgsubr
          -25 -735 -107 callsubr
        </CharString>
        <CharString name="uni1EAA">
          39 195 906 -103 callgsubr
          -1 -173 -104 callgsubr
          -298 -868 -102 callgsubr
        </CharString>
        <CharString name="uni1EAB">
          112 761 -103 callgsubr
          -1 -173 -104 callgsubr
          -25 -735 -107 callsubr
        </CharString>
        <CharString name="uni1EAC">
          -42 callgsubr
          -298 -868 rmoveto
          -106 callsubr
          -174 -425 -87 callsubr
          endchar
        </CharString>
        <CharString name="uni1EAD">
          -62 callsubr
          -25 -735 -107 callgsubr
          -25 -269 -87 callsubr
          endchar
        </CharString>
        <CharString name="uni1EAE">
          -8 callgsubr
          868 -10 callsubr
          -269 -90 callgsubr
        </CharString>
        <CharString name="uni1EAF">
          225 723 -10 callsubr
          -269 -99 callgsubr
        </CharString>
        <CharString name="uni1EB0">
          39 307 868 -100 callsubr
          161 -266 -90 callgsubr
        </CharString>
        <CharString name="uni1EB1">
          227 723 -100 callsubr
          158 -266 -99 callgsubr
        </CharString>
        <CharString name="uni1EB2">
          39 327 868 -53 callgsubr
          -191 -90 callgsubr
        </CharString>
        <CharString name="uni1EB3">
          244 723 -53 callgsubr
          -191 -99 callgsubr
        </CharString>
        <CharString name="uni1EB4">
          39 195 906 -103 callgsubr
          165 -175 -90 callgsubr
        </CharString>
        <CharString name="uni1EB5">
          112 761 -103 callgsubr
          165 -175 -99 callgsubr
        </CharString>
        <CharString name="uni1EB6">
          39 360 731 -90 callsubr
          -174 -425 -87 callsubr
          endchar
        </CharString>
        <CharString name="uni1EB7">
          277 586 -99 callsubr
          -25 -269 -87 callsubr
          endchar
        </CharString>
        <CharString name="uni1EB8">
          -16 67 hmoveto
          -92 callgsubr
          199 -859 -87 callsubr
          endchar
        </CharString>
        <CharString name="uni1EB9">
          288 -12 -105 callgsubr
          -169 -495 -87 callsubr
          endchar
        </CharString>
        <CharString name="uni1EBA">
          -16 300 -72 callgsubr
          -233 -790 -82 callsubr
        </CharString>
        <CharString name="uni1EBB">
          244 591 -101 callgsubr
          44 -657 -105 callgsubr
          endchar
        </CharString>
        <CharString name="uni1EBC">
          -16 166 746 -103 callgsubr
          -99 -746 -82 callsubr
        </CharString>
        <CharString name="uni1EBD">
          110 601 -103 callgsubr
          178 -613 -105 callgsubr
          endchar
        </CharString>
        <CharString name="uni1EBE">
          -16 428 831 -101 callsubr
          -340 -230 -78 callgsubr
        </CharString>
        <CharString name="uni1EBF">
          372 686 -101 callsubr
          -340 -230 -104 callgsubr
          71 -735 -105 callgsubr
          endchar
        </CharString>
        <CharString name="uni1EC0">
          -16 468 831 -100 callsubr
          -193 -227 -78 callgsubr
        </CharString>
        <CharString name="uni1EC1">
          412 686 -100 callsubr
          -193 -227 -104 callgsubr
          71 -735 -105 callgsubr
          endchar
        </CharString>
        <CharString name="uni1EC2">
          -16 447 831 -101 callgsubr
          -280 -152 -78 callgsubr
        </CharString>
        <CharString name="uni1EC3">
          391 686 -101 callgsubr
          -280 -152 -104 callgsubr
          71 -735 -105 callgsubr
          endchar
        </CharString>
        <CharString name="uni1EC4">
          -16 168 906 -103 callgsubr
          -1 -173 -78 callgsubr
        </CharString>
        <CharString name="uni1EC5">
          112 761 -103 callgsubr
          -1 -173 -104 callgsubr
          71 -735 -105 callgsubr
          endchar
        </CharString>
        <CharString name="uni1EC6">
          -16 167 733 -78 callsubr
          199 -859 -87 callsubr
          endchar
        </CharString>
        <CharString name="uni1EC7">
          -62 callsubr
          71 -735 -105 callgsubr
          -169 -495 -87 callsubr
          endchar
        </CharString>
        <CharString name="uni1EC8">
          -405 105 -72 callgsubr
          -38 -790 -56 callsubr
        </CharString>
        <CharString name="uni1EC9">
          -405 105 591 -101 callgsubr
          -34 -645 -56 callgsubr
        </CharString>
        <CharString name="uni1ECA">
          -405 67 hmoveto
          -38 callsubr
          4 -859 -87 callsubr
          endchar
        </CharString>
        <CharString name="uni1ECB">
          -405 71 599 -31 callsubr
          1 -699 -87 callsubr
          endchar
        </CharString>
        <CharString name="uni1ECC">
          95 389 -12 -106 callgsubr
          -68 -284 -87 callsubr
          endchar
        </CharString>
        <CharString name="uni1ECD">
          -72 305 -12 rmoveto
          -105 callsubr
          -67 -273 -87 callsubr
          endchar
        </CharString>
        <CharString name="uni1ECE">
          95 355 -72 callgsubr
          34 -802 -106 callgsubr
          endchar
        </CharString>
        <CharString name="uni1ECF">
          -72 272 591 -53 callgsubr
          -657 rmoveto
          -105 callsubr
          endchar
        </CharString>
        <CharString name="uni1ED0">
          95 483 831 -101 callsubr
          -340 -230 -104 callgsubr
          61 -880 -106 callgsubr
          endchar
        </CharString>
        <CharString name="uni1ED1">
          -72 400 686 -101 callsubr
          -340 -230 -58 callsubr
          -735 rmoveto
          -105 callsubr
          endchar
        </CharString>
        <CharString name="uni1ED2">
          95 523 831 -100 callsubr
          -193 -227 -104 callgsubr
          61 -880 -106 callgsubr
          endchar
        </CharString>
        <CharString name="uni1ED3">
          -72 440 686 -100 callsubr
          -193 -227 -58 callsubr
          -735 rmoveto
          -105 callsubr
          endchar
        </CharString>
        <CharString name="uni1ED4">
          95 502 831 -101 callgsubr
          -280 -152 -104 callgsubr
          61 -880 -106 callgsubr
          endchar
        </CharString>
        <CharString name="uni1ED5">
          -72 419 686 -101 callgsubr
          -280 -152 -58 callsubr
          -735 rmoveto
          -105 callsubr
          endchar
        </CharString>
        <CharString name="uni1ED6">
          95 223 906 -103 callgsubr
          -1 -173 -104 callgsubr
          61 -880 -106 callgsubr
          endchar
        </CharString>
        <CharString name="uni1ED7">
          -72 140 761 -103 callgsubr
          -1 -173 -58 callsubr
          -735 rmoveto
          -105 callsubr
          endchar
        </CharString>
        <CharString name="uni1ED8">
          95 222 -76 callsubr
          61 -880 -106 callgsubr
          -68 -284 -87 callsubr
          endchar
        </CharString>
        <CharString name="uni1ED9">
          -22 callgsubr
          60 -735 rmoveto
          -105 callsubr
          -67 -273 -87 callsubr
          endchar
        </CharString>
        <CharString name="uni1EDA">
          95 549 865 -42 callsubr
          198 92 -95 callgsubr
          endchar
        </CharString>
        <CharString name="uni1EDB">
          -72 466 720 -42 callsubr
          154 95 -92 callsubr
          endchar
        </CharString>
        <CharString name="uni1EDC">
          95 441 736 -37 callsubr
          303 92 -95 callgsubr
          endchar
        </CharString>
        <CharString name="uni1EDD">
          -72 358 591 -37 callsubr
          259 95 -92 callsubr
          endchar
        </CharString>
        <CharString name="uni1EDE">
          95 401 809 -66 callgsubr
          238 19 -95 callgsubr
          endchar
        </CharString>
        <CharString name="uni1EDF">
          -72 318 664 -66 callgsubr
          194 22 -92 callsubr
          endchar
        </CharString>
        <CharString name="uni1EE0">
          95 326 783 -73 callsubr
          313 45 -95 callgsubr
          endchar
        </CharString>
        <CharString name="uni1EE1">
          -72 243 638 -73 callsubr
          269 48 -92 callsubr
          endchar
        </CharString>
        <CharString name="uni1EE2">
          95 639 828 -95 callgsubr
          -267 -531 -87 callsubr
          endchar
        </CharString>
        <CharString name="uni1EE3">
          -72 512 686 -92 callsubr
          -194 -444 -87 callsubr
          endchar
        </CharString>
        <CharString name="uni1EE4">
          39 360 -12 rmoveto
          -102 callsubr
          -67 -161 -87 callsubr
          endchar
        </CharString>
        <CharString name="uni1EE5">
          -72 242 -12 -103 callsubr
          -4 -161 -87 callsubr
          endchar
        </CharString>
        <CharString name="uni1EE6">
          39 327 -72 callgsubr
          33 -802 rmoveto
          -102 callsubr
          endchar
        </CharString>
        <CharString name="uni1EE7">
          -72 270 591 -101 callgsubr
          -28 -657 -103 callsubr
          endchar
        </CharString>
        <CharString name="uni1EE8">
          39 598 868 -86 callsubr
          -235 -3 -42 callsubr
          endchar
        </CharString>
        <CharString name="uni1EE9">
          -72 502 723 -87 callgsubr
          -196 -3 -42 callsubr
          endchar
        </CharString>
        <CharString name="uni1EEA">
          39 598 868 -86 callsubr
          -343 -132 -37 callsubr
          endchar
        </CharString>
        <CharString name="uni1EEB">
          -72 502 723 -87 callgsubr
          -304 -132 -37 callsubr
          endchar
        </CharString>
        <CharString name="uni1EEC">
          39 373 809 -66 callgsubr
          225 59 -86 callsubr
          endchar
        </CharString>
        <CharString name="uni1EED">
          -72 316 664 -66 callgsubr
          186 59 -87 callgsubr
          endchar
        </CharString>
        <CharString name="uni1EEE">
          39 598 868 -86 callsubr
          -458 -85 -73 callsubr
          endchar
        </CharString>
        <CharString name="uni1EEF">
          -72 502 723 -87 callgsubr
          -419 -85 -73 callsubr
          endchar
        </CharString>
        <CharString name="uni1EF0">
          39 598 868 -86 callsubr
          -463 -1041 -87 callsubr
          endchar
        </CharString>
        <CharString name="uni1EF1">
          -72 502 723 -87 callgsubr
          -422 -896 -87 callsubr
          endchar
        </CharString>
        <CharString name="uni1EF4">
          -16 262 hmoveto
          -84 callgsubr
          4 -450 -87 callsubr
          endchar
        </CharString>
        <CharString name="uni1EF5">
          151 -182 -97 callsubr
          229 9 -87 callsubr
          endchar
        </CharString>
        <CharString name="uni1EF6">
          -16 300 -72 callgsubr
          -38 -790 rmoveto
          -84 callgsubr
          endchar
        </CharString>
        <CharString name="uni1EF7">
          244 591 -101 callgsubr
          -93 -827 -97 callsubr
          endchar
        </CharString>
        <CharString name="uni1EF8">
          -16 166 746 -103 callgsubr
          96 -746 rmoveto
          -84 callgsubr
          endchar
        </CharString>
        <CharString name="uni1EF8.loclGUA">
          -16 166 746 -103 callgsubr
          156 -758 -93 callgsubr
        </CharString>
        <CharString name="uni1EF9">
          110 601 -103 callgsubr
          41 -783 -97 callsubr
          endchar
        </CharString>
        <CharString name="uni1EF9.loclGUA">
          -72 138 601 -103 callgsubr
          146 -783 -94 callsubr
        </CharString>
        <CharString name="uni2015">
          317 32 221 rmoveto
          936 98 -936 hlineto
          endchar
        </CharString>
        <CharString name="uni203E">
          -350 -15 790 rmoveto
          364 98 -364 hlineto
          endchar
        </CharString>
        <CharString name="uni207F">
          -287 59 414 rmoveto
          82 183 hlineto
          38 27 29 37 35 20 -14 -41 vhcurveto
          -195 82 212 vlineto
          81 -43 30 -61 -47 -32 -23 -26 -19 vhcurveto
          -4 hlineto
          -6 42 rlineto
          -71 hlineto
          endchar
        </CharString>
        <CharString name="uni20B2">
          -93 337 254 rmoveto
          51 hlineto
          -36 -39 -24 -49 -3 vhcurveto
          304 vlineto
          57 -1 33 -31 -41 vvcurveto
          143 hlineto
          131 -104 63 -129 2 vhcurveto
          105 -51 -108 vlineto
          -131 -16 -80 -89 -172 vvcurveto
          -172 81 -87 130 -10 vhcurveto
          -118 51 118 vlineto
          47 3 41 14 32 30 13 -46 rcurveline
          100 303 -196 hlineto
          -160 -45 rmoveto
          30 vlineto
          67 26 45 46 17 vhcurveto
          -291 vlineto
          -49 15 -23 43 74 vvcurveto
          endchar
        </CharString>
        <CharString name="uni2105">
          202 216 324 rmoveto
          92 71 47 101 hvcurveto
          -86 hlineto
          -47 -30 -26 -45 -62 -27 37 67 vhcurveto
          16 vlineto
          66 27 39 62 42 31 -27 -47 vhcurveto
          88 hlineto
          100 -73 48 -90 -109 -66 -60 -127 -132 66 -55 109 vhcurveto
          -78 -336 rmoveto
          84 hlineto
          512 710 rlineto
          -84 hlineto
          13 -710 rmoveto
          114 69 60 127 127 -69 60 -114 -114 -69 -60 -127 -127 69 -60 114 hvcurveto
          75 vmoveto
          -64 -31 39 65 hvcurveto
          16 vlineto
          66 31 39 64 64 31 -39 -66 1 callgsubr
          -65 -31 -39 -64 vhcurveto
          endchar
        </CharString>
        <CharString name="uni2113">
          -194 228 198 rmoveto
          74 vlineto
          109 104 82 115 91 vvcurveto
          100 -54 53 -90 -86 -81 -56 -171 vhcurveto
          -245 vlineto
          -19 -16 -18 -14 -16 -12 rrcurveto
          -89 vlineto
          53 37 rlineto
          -101 1 53 -80 130 hhcurveto
          44 34 9 17 34 hvcurveto
          103 vlineto
          -18 -28 -32 -12 -39 hhcurveto
          -42 -35 30 81 hvcurveto
          310 vmoveto
          107 31 36 29 29 13 -25 -43 -63 -45 -73 -57 -66 vhcurveto
          endchar
        </CharString>
        <CharString name="uni2116">
          432 886 304 rmoveto
          115 57 61 136 136 -57 61 -115 -115 -57 -61 -136 -136 57 -61 115 hvcurveto
          -819 -304 rmoveto
          141 376 -15 callsubr
          -373 rlineto
          141 686 -141 -376 hlineto
          -11 3 -47 0 vhcurveto
          -5 -3 rlineto
          0 -27 49 -13 18 vhcurveto
          -264 370 -19 callsubr
          819 -302 rmoveto
          -51 -21 40 72 hvcurveto
          10 vlineto
          72 21 40 51 51 20 -40 -72 vhcurveto
          -10 vlineto
          -72 -20 -40 -51 vhcurveto
          -156 -210 rmoveto
          313 89 -313 hlineto
          endchar
        </CharString>
        <CharString name="uni2126">
          -65 callgsubr
        </CharString>
        <CharString name="uni2153">
          151 112 -12 -61 callsubr
          -612 -53 callsubr
          617 -416 -85 callgsubr
          endchar
        </CharString>
        <CharString name="uni2154">
          151 35 -52 callsubr
          85 -366 -61 callsubr
          -3 -710 -85 callgsubr
          endchar
        </CharString>
        <CharString name="uni2206">
          -71 13 hmoveto
          586 hlineto
          -280 698 rlineto
          -206 -634 rmoveto
          181 417 168 -417 rlineto
          endchar
        </CharString>
        <CharString name="uni2215">
          -516 -234 -12 -61 callsubr
          endchar
        </CharString>
        <CharString name="uni2219">
          -333 168 187 rmoveto
          37 31 30 38 37 -31 31 -37 -38 -30 -31 -37 -38 30 -30 38 hvcurveto
          endchar
        </CharString>
        <CharString name="uniA78B">
          -460 49 207 rmoveto
          91 hlineto
          43 359 rlineto
          120 -134 vlineto
          endchar
        </CharString>
        <CharString name="uniA78C">
          -485 49 287 rmoveto
          86 hlineto
          43 314 rlineto
          122 -129 vlineto
          endchar
        </CharString>
        <CharString name="uogonek">
          -72 469 -38 callgsubr
          -24 vlineto
          -33 -15 22 24 31 21 23 51 13 hvcurveto
          -60 callsubr
          -304 vlineto
          -96 callgsubr
          78 52 38 43 34 vhcurveto
          7 hlineto
          10 -69 rlineto
          -35 -23 -25 -28 -43 vvcurveto
          -67 55 -21 51 vhcurveto
          endchar
        </CharString>
        <CharString name="uring">
          -72 304 -36 callsubr
          -62 -625 -103 callsubr
          endchar
        </CharString>
        <CharString name="utilde">
          -72 136 601 -103 callgsubr
          106 -613 -103 callsubr
          endchar
        </CharString>
        <CharString name="v">
          205 hmoveto
          145 hlineto
          197 526 rlineto
          -139 hlineto
          -81 -226 rlineto
          -17 -47 -27 -111 0 vvcurveto
          -5 hlineto
          0 -29 118 -15 40 vhcurveto
          -82 226 rlineto
          -143 hlineto
          endchar
        </CharString>
        <CharString name="w">
          95 161 hmoveto
          -91 callsubr
        </CharString>
        <CharString name="wacute">
          95 336 -83 callgsubr
          -254 -723 rmoveto
          -91 callsubr
        </CharString>
        <CharString name="wcircumflex">
          95 222 -79 callgsubr
          -167 -723 rmoveto
          -91 callsubr
        </CharString>
        <CharString name="wdieresis">
          95 225 -70 callsubr
          -274 -723 rmoveto
          -91 callsubr
        </CharString>
        <CharString name="wgrave">
          95 336 -67 callgsubr
          -67 -720 rmoveto
          -91 callsubr
        </CharString>
        <CharString name="x">
          6 hmoveto
          154 hlineto
          110 174 rlineto
          6 hlineto
          109 -174 rlineto
          164 hlineto
          -183 275 173 251 rlineto
          -155 hlineto
          -97 -153 rlineto
          -6 hlineto
          -95 153 rlineto
          -165 hlineto
          170 -254 rlineto
          endchar
        </CharString>
        <CharString name="y">
          151 -182 -97 callsubr
          endchar
        </CharString>
        <CharString name="y.loclGUA">
          -72 284 -182 -94 callsubr
        </CharString>
        <CharString name="yacute">
          225 -83 callgsubr
          -153 -905 -97 callsubr
          endchar
        </CharString>
        <CharString name="yacute.loclGUA">
          -5 callsubr
          -83 callgsubr
          -48 -905 -94 callsubr
        </CharString>
        <CharString name="ycircumflex">
          -62 callsubr
          -66 -905 -97 callsubr
          endchar
        </CharString>
        <CharString name="ycircumflex.loclGUA">
          -22 callgsubr
          39 -905 -94 callsubr
        </CharString>
        <CharString name="ydieresis">
          114 -70 callsubr
          -173 -905 -97 callsubr
          endchar
        </CharString>
        <CharString name="ydieresis.loclGUA">
          -72 142 -70 callsubr
          -68 -905 -94 callsubr
        </CharString>
        <CharString name="yen">
          211 hmoveto
          137 142 189 81 -189 70 189 81 -146 hlineto
          37 69 129 243 rlineto
          -149 hlineto
          -90 -194 -11 -23 -10 -24 -11 -23 rlinecurve
          -5 hlineto
          -33 69 -91 195 rlineto
          -157 hlineto
          137 -255 30 -57 rlineto
          -145 -81 189 -70 -189 -81 189 hlineto
          endchar
        </CharString>
        <CharString name="ygrave">
          225 -67 callgsubr
          34 -902 -97 callsubr
          endchar
        </CharString>
        <CharString name="ygrave.loclGUA">
          -5 callsubr
          -67 callgsubr
          139 -902 -94 callsubr
        </CharString>
        <CharString name="z">
          -183 21 hmoveto
          -80 callgsubr
          endchar
        </CharString>
        <CharString name="zacute">
          -183 197 -83 callgsubr
          -255 -723 rmoveto
          -80 callgsubr
          endchar
        </CharString>
        <CharString name="zacute.loclPLK">
          -183 197 591 -60 callgsubr
          -205 -722 rmoveto
          -80 callgsubr
          endchar
        </CharString>
        <CharString name="zcaron">
          -183 189 588 -97 callgsubr
          -62 -723 rmoveto
          -80 callgsubr
          endchar
        </CharString>
        <CharString name="zdotaccent">
          -183 182 -39 callgsubr
          -161 -724 rmoveto
          -80 callgsubr
          endchar
        </CharString>
        <CharString name="zero">
          278 -12 rmoveto
          147 89 76 279 279 -89 76 -147 -148 -88 -76 -279 -279 88 -76 148 -40 callgsubr
          -80 -15 65 143 hvcurveto
          70 vlineto
          143 15 65 80 80 15 -65 -143 vhcurveto
          -70 vlineto
          -143 -15 -65 -80 vhcurveto
          endchar
        </CharString>
      <CharString index="0">
        rmoveto
        85 44 28 41 35 hvcurveto
        6 hlineto
        -44 13 39 -25 54 hhcurveto
        39 26 9 7 14 hvcurveto
        96 -28 vlineto
        -18 -17 10 25 hvcurveto
        232 vlineto
        108 -68 63 -147 -129 -85 -58 -88 -9 0 -7 1 -6 vhcurveto
        132 15 hlineto
        21 18 26 67 63 11 -33 -40 vhcurveto
        -37 vlineto
        -188 -130 -44 -142 -128 106 -20 57 hvcurveto
        43 108 rmoveto
        -47 -20 24 31 65 87 15 92 hvcurveto
        -16 vlineto
        -66 -30 -53 -82 vhcurveto
        return
      </CharString>
      <CharString index="1">
        rmoveto
        216 132 113 242 242 -132 113 -216 -215 -132 -113 -242 -242 132 -113 215 -18 callgsubr
        vmoveto
        -132 -66 81 136 hvcurveto
        30 vlineto
        136 66 81 132 133 66 -81 -136 vhcurveto
        2 callsubr
        return
      </CharString>
      <CharString index="2">
        rmoveto
        133 100 61 137 hvcurveto
        -135 hlineto
        -61 -40 -31 -56 -84 -29 47 90 -2 vhcurveto
        346 32 hlineto
        189 -79 86 -154 -168 -84 -64 callsubr
        168 vhcurveto
        -111 334 rmoveto
        72 8 33 37 70 hhcurveto
        55 36 -31 -78 hvcurveto
        return
      </CharString>
      <CharString index="3">
        rmoveto
        111 hlineto
        56 69 55 -69 rlineto
        111 hlineto
        -105 -49 callsubr
        -122 hlineto
        return
      </CharString>
      <CharString index="4">
        rmoveto
        70 hlineto
        27 4 12 10 19 45 39 -37 48 hhcurveto
        71 28 57 65 hvcurveto
        -70 hlineto
        -28 -4 -12 -9 -19 -45 -39 37 -49 hhcurveto
        -70 -28 -57 -65 hvcurveto
        return
      </CharString>
      <CharString index="5">
        rmoveto
        -106 callsubr
        endchar
      </CharString>
      <CharString index="6">
        rmoveto
        68 25 hlineto
        45 3 40 16 39 vvcurveto
        50 -69 11 -48 -25 -34 -3 -5 -24 vhcurveto
        -44 58 vlineto
        22 13 -4 -15 -13 -8 -6 -24 hvcurveto
        -14 hlineto
        return
      </CharString>
      <CharString index="7">
        rmoveto
        116 46 73 64 hvcurveto
        -90 hlineto
        -20 -2 -23 -28 -47 hhcurveto
        -47 -21 28 20 -3 hvcurveto
        -90 hlineto
        -64 45 -73 116 vhcurveto
        return
      </CharString>
      <CharString index="8">
        -99 callsubr
        endchar
      </CharString>
      <CharString index="9">
        rmoveto
        171 122 60 154 hvcurveto
        248 -418 -61 122 vvcurveto
        40 45 24 85 79 49 -31 -51 vhcurveto
        -9 144 12 vlineto
        141 -122 61 -148 -161 -117 -62 -130 vhcurveto
        -255 418 76 -144 vvcurveto
        -41 -36 -31 -104 -95 -53 38 58 vhcurveto
        5 1 9 2 vvcurveto
        -147 hlineto
        -5 -1 -9 -8 vvcurveto
        -141 135 -72 153 vhcurveto
        return
      </CharString>
      <CharString index="10">
        rmoveto
        122 hlineto
        105 -49 callsubr
        -111 hlineto
        -55 -69 -56 69 rlineto
        -111 hlineto
        return
      </CharString>
      <CharString index="11">
        -86 callgsubr
        -353 -30 callgsubr
        73 -49 101 return
      </CharString>
      <CharString index="12">
        rmoveto
        -137 69 vlineto
        -13 -32 -26 -21 -41 -12 rrcurveto
        48 -59 -81 24 -99 2 callgsubr
        -242 132 -113 215 216 132 113 242 96 -21 76 -39 57 hvcurveto
        82 32 38 61 109 vvcurveto
        54 vlineto
        -209 -500 rmoveto
        -47 callgsubr
        30 vlineto
        136 66 81 132 133 66 -81 -136 vhcurveto
        return
      </CharString>
      <CharString index="13">
        141 379 -15 callsubr
        -376 rlineto
        141 686 -141 -379 hlineto
        -11 3 -47 0 vhcurveto
        -5 -3 rlineto
        0 -27 49 -13 18 vhcurveto
        -264 373 -19 callsubr
        return
      </CharString>
      <CharString index="14">
        rmoveto
        173 105 90 176 hvcurveto
        432 -145 -174 vlineto
        -119 -48 -62 -87 -68 -40 38 73 vhcurveto
        244 -145 -241 vlineto
        -149 70 -88 145 75 59 24 56 35 vhcurveto
        4 -56 hlineto
        -80 -50 -41 -83 -70 -40 20 37 vhcurveto
        -145 -7 hlineto
        -115 96 -58 159 vhcurveto
        endchar
      </CharString>
      <CharString index="15">
        545 123 -400 166 350 123 -350 151 394 123 -539 hlineto
        return
      </CharString>
      <CharString index="16">
        157 hlineto
        111 437 rlineto
        7 29 10 68 0 vvcurveto
        4 hlineto
        0 8 -62 9 -35 vhcurveto
        113 -437 rlineto
        157 hlineto
        182 686 rlineto
        -134 hlineto
        -102 -422 rlineto
        -8 -34 -8 -62 0 vvcurveto
        -5 hlineto
        0 -10 69 -6 27 vhcurveto
        -100 422 rlineto
        -175 hlineto
        -101 -422 rlineto
        -7 -29 -9 -67 0 vvcurveto
        -5 hlineto
        0 -9 66 -7 30 vhcurveto
        -99 422 rlineto
        -155 hlineto
        endchar
      </CharString>
      <CharString index="17">
        -90 callsubr
        endchar
      </CharString>
      <CharString index="18">
        rmoveto
        -92 callgsubr
        return
      </CharString>
      <CharString index="19">
        rmoveto
        90 hlineto
        20 3 21 28 47 hhcurveto
        47 23 -28 -20 2 hvcurveto
        90 hlineto
        64 -46 73 -116 -116 -45 -73 -64 vhcurveto
        return
      </CharString>
      <CharString index="20">
        rmoveto
        -137 69 vlineto
        -11 -28 -21 -19 -32 -13 rrcurveto
        -104 -304 hlineto
        -96 callgsubr
        78 52 38 43 34 vhcurveto
        -71 callsubr
        467 hlineto
        82 32 38 61 109 vvcurveto
        54 vlineto
        return
      </CharString>
      <CharString index="21">
        -63 -45 -50 -62 -57 -34 25 68 vhcurveto
        324 -137 return
      </CharString>
      <CharString index="22">
        rmoveto
        75 53 39 66 43 -24 28 -37 14 hvcurveto
        4 vlineto
        33 17 21 22 38 vvcurveto
        67 -50 35 -73 -70 -52 -40 -62 vhcurveto
        -12 83 8 vlineto
        25 16 13 24 23 15 -11 -27 -30 -17 -13 -24 vhcurveto
        -34 -69 32 hlineto
        27 23 -9 -36 -29 -18 -13 -27 -30 -17 15 26 hvcurveto
        8 -83 -7 vlineto
        -67 46 -43 85 vhcurveto
        return
      </CharString>
      <CharString index="23">
        145 277 hlineto
        260 409 rlineto
        -157 hlineto
        -169 -280 rlineto
        -5 hlineto
        -171 280 rlineto
        -165 hlineto
        262 -409 rlineto
        return
      </CharString>
      <CharString index="24">
        591 -101 callsubr
        return
      </CharString>
      <CharString index="25">
        -80 callsubr
        endchar
      </CharString>
      <CharString index="26">
        rmoveto
        107 31 71 70 hvcurveto
        567 -137 -553 vlineto
        -28 -15 -15 -28 vhcurveto
        -52 -96 hlineto
        -8 22 41 -8 31 hhcurveto
        endchar
      </CharString>
      <CharString index="27">
        457 112 -259 hlineto
        250 354 rlineto
        60 -433 -112 234 vlineto
        -249 -353 rlineto
        return
      </CharString>
      <CharString index="28">
        588 -104 callgsubr
        return
      </CharString>
      <CharString index="29">
        -78 callsubr
        endchar
      </CharString>
      <CharString index="30">
        137 254 hlineto
        96 36 51 91 vhcurveto
        38 128 hlineto
        0 -22 9 -30 -63 -32 -44 -53 -20 6 callgsubr
        -11 85 rlineto
        -117 hlineto
        return
      </CharString>
      <CharString index="31">
        rmoveto
        63 38 45 56 56 -38 45 -63 -63 -38 -45 -56 -56 38 -45 63 hvcurveto
        57 vmoveto
        -27 -17 19 25 25 17 19 27 26 18 -19 -25 -25 -18 -19 -26 hvcurveto
        return
      </CharString>
      <CharString index="32">
        247 -12 rmoveto
        67 59 27 54 -6 callgsubr
        9 -5 callgsubr
        723 -137 -258 -6 hlineto
        47 -31 -55 26 -71 hhcurveto
        -116 -87 -85 -189 -191 81 -85 129 hvcurveto
        return
      </CharString>
      <CharString index="33">
        586 -100 callgsubr
        return
      </CharString>
      <CharString index="34">
        -86 -189 -189 return
      </CharString>
      <CharString index="35">
        736 -101 callgsubr
        return
      </CharString>
      <CharString index="36">
        rmoveto
        97 58 27 41 43 hvcurveto
        -46 42 64 -22 85 hhcurveto
        133 100 61 137 hvcurveto
        -135 hlineto
        -61 -40 -31 -56 -84 -29 47 90 -2 vhcurveto
        346 32 hlineto
        189 -79 86 -154 -70 -56 -17 -34 -41 vhcurveto
        33 -38 -57 18 -80 hhcurveto
        -135 -89 -58 -88 -9 0 -7 1 -6 hvcurveto
        132 15 hlineto
        21 20 26 75 75 13 -33 -40 vhcurveto
        -37 vlineto
        -204 -138 -44 -142 -128 134 -20 69 hvcurveto
        278 334 rmoveto
        72 8 33 37 70 hhcurveto
        55 36 -31 -78 hvcurveto
        -467 -226 rmoveto
        -54 -23 24 31 65 99 15 104 hvcurveto
        -16 vlineto
        -66 -34 -53 -92 vhcurveto
        endchar
      </CharString>
      <CharString index="37">
        rmoveto
        30 39 8 8 21 hvcurveto
        96 -48 vlineto
        -28 -15 15 28 hvcurveto
        271 91 112 -91 148 -111 vlineto
        -23 -148 rlineto
        -66 -112 63 -285 hlineto
        -70 31 -71 107 vhcurveto
        return
      </CharString>
      <CharString index="38">
        750 -95 callsubr
        return
      </CharString>
      <CharString index="39">
        731 -100 callgsubr
        return
      </CharString>
      <CharString index="40">
        591 -100 callsubr
        return
      </CharString>
      <CharString index="41">
        rmoveto
        -13 -8 -6 -24 vhcurveto
        -14 -54 68 25 hlineto
        45 3 40 16 39 vvcurveto
        50 -69 11 -48 -25 -34 -3 -5 -24 vhcurveto
        -44 58 vlineto
        22 13 -4 -15 hvcurveto
        return
      </CharString>
      <CharString index="42">
        119 33 hmoveto
        332 111 hlineto
        -107 20 -56 74 111 vvcurveto
        32 vlineto
        152 67 75 132 132 67 -75 -152 vhcurveto
        -32 vlineto
        -112 -55 -75 -108 -19 vhcurveto
        -110 332 123 -51 vlineto
        -21 -41 -11 -3 -39 hvcurveto
        79 53 53 84 117 vvcurveto
        212 -132 123 -216 -216 -132 -123 -212 -117 52 -84 79 -53 vhcurveto
        4 -40 -40 10 -20 hhcurveto
        -51 hlineto
        endchar
      </CharString>
      <CharString index="43">
        736 -100 callsubr
        return
      </CharString>
      <CharString index="44">
        rmoveto
        -84 -29 52 95 hvcurveto
        18 vlineto
        95 29 52 84 78 34 -54 -95 1 callgsubr
        -95 -34 -52 -78 vhcurveto
        return
      </CharString>
      <CharString index="45">
        rmoveto
        305 88 -305 hlineto
        return
      </CharString>
      <CharString index="46">
        72 hlineto
        66 168 rlineto
        125 -138 -137 55 vlineto
        return
      </CharString>
      <CharString index="47">
        rmoveto
        105 hlineto
        48 131 rlineto
        -124 hlineto
        return
      </CharString>
      <CharString index="48">
        281 -12 -96 callsubr
        return
      </CharString>
      <CharString index="49">
        138 137 -138 hlineto
        return
      </CharString>
      <CharString index="50">
        325 -85 callgsubr
        return
      </CharString>
      <CharString index="51">
        rmoveto
        -54 callgsubr
      </CharString>
      <CharString index="52">
        -25 -68 vhcurveto
        -324 137 return
      </CharString>
      <CharString index="53">
        -47 callsubr
        endchar
      </CharString>
      <CharString index="54">
        -101 callgsubr
        33 return
      </CharString>
      <CharString index="55">
        -6 callsubr
        129 rlineto
        115 -138 -127 55 vlineto
        return
      </CharString>
      <CharString index="56">
        71 hmoveto
        137 155 hlineto
        70 68 115 -223 rlineto
        157 hlineto
        -184 324 174 202 rlineto
        -158 hlineto
        -174 -209 rlineto
        return
      </CharString>
      <CharString index="57">
        150 hlineto
        60 131 rlineto
        316 hlineto
        34 -131 rlineto
        390 123 -276 hlineto
        -44 166 rlineto
        270 123 -303 hlineto
        -40 151 rlineto
        387 123 -612 hlineto
        -66 -434 rmoveto
        144 311 rlineto
        5 hlineto
        80 -311 rlineto
        endchar
      </CharString>
      <CharString index="58">
        39 67 hmoveto
        -89 callsubr
        return
      </CharString>
      <CharString index="59">
        67 hmoveto
        -94 callgsubr
        return
      </CharString>
      <CharString index="60">
        -136 -66 -81 -133 -132 -66 81 136 vhcurveto
        return
      </CharString>
      <CharString index="61">
        515 126 -370 560 -4 callsubr
        return
      </CharString>
      <CharString index="62">
        -66 callsubr
        endchar
      </CharString>
      <CharString index="63">
        rmoveto
        137 124 -10 callgsubr
        return
      </CharString>
      <CharString index="64">
        -156 rmoveto
        -61 callgsubr
        return
      </CharString>
      <CharString index="65">
        39 194 -76 callsubr
        return
      </CharString>
      <CharString index="66">
        -24 callgsubr
        -145 return
      </CharString>
      <CharString index="67">
        hvcurveto
        112 vmoveto
        return
      </CharString>
      <CharString index="68">
        594 -87 callsubr
        return
      </CharString>
      <CharString index="69">
        -4 callgsubr
        24 22 5 9 25 hvcurveto
        55 return
      </CharString>
      <CharString index="70">
        39 67 hmoveto
        145 199 hlineto
        128 106 197 -305 rlineto
        172 hlineto
        -272 407 268 279 rlineto
        -176 hlineto
        -317 -331 rlineto
        331 -145 vlineto
        return
      </CharString>
      <CharString index="71">
        89 54 41 139 139 -54 42 -89 -89 -54 -42 -139 -138 54 -42 89 hvcurveto
        return
      </CharString>
      <CharString index="72">
        -38 callgsubr
        -24 vlineto
        -35 -13 25 26 28 19 28 13 14 hvcurveto
        4 -86 vlineto
        -26 -26 -25 -30 -50 vvcurveto
        -67 55 -21 51 vhcurveto
        endchar
      </CharString>
      <CharString index="73">
        -101 -35 -54 -92 -9 callsubr
        vhcurveto
        return
      </CharString>
      <CharString index="74">
        rmoveto
        99 hlineto
        -108 200 108 200 rlineto
        -99 hlineto
        -136 -200 rlineto
        return
      </CharString>
      <CharString index="75">
        82 hlineto
        36 489 rlineto
        -153 hlineto
        12 -163 11 -163 12 -163 rrcurveto
        return
      </CharString>
      <CharString index="76">
        vvcurveto
        -67 55 -21 51 24 22 5 9 25 vhcurveto
        -14 callsubr
        return
      </CharString>
      <CharString index="77">
        vlineto
        -136 return
      </CharString>
      <CharString index="78">
        8 callgsubr
        -55 hlineto
        55 156 rlineto
        -72 hlineto
        -66 -168 rlineto
        return
      </CharString>
      <CharString index="79">
        hvcurveto
        -71 callsubr
        -60 callsubr
        -13 callsubr
        return
      </CharString>
      <CharString index="80">
        145 561 -39 callsubr
        hlineto
        return
      </CharString>
      <CharString index="81">
        179 89 return
      </CharString>
      <CharString index="82">
        39 67 hmoveto
        -21 callsubr
        return
      </CharString>
      <CharString index="83">
        145 686 return
      </CharString>
      <CharString index="84">
        vlineto
        130 -53 rlineto
        52 vlineto
        -173 197 rlineto
        -21 hlineto
        -174 -197 rlineto
        -52 vlineto
        130 53 rlineto
        return
      </CharString>
      <CharString index="85">
        -72 139 -79 callgsubr
        return
      </CharString>
      <CharString index="86">
        rmoveto
        109 hlineto
        57 177 -1 3 0 callgsubr
        return
      </CharString>
      <CharString index="87">
        137 414 93 112 -93 50 return
      </CharString>
      <CharString index="88">
        rmoveto
        104 63 41 139 139 -63 42 -104 -104 -63 -42 -139 -138 63 -42 104 hvcurveto
        return
      </CharString>
      <CharString index="89">
        hvcurveto
        123 return
      </CharString>
      <CharString index="90">
        -4 callgsubr
        107 31 71 70 hvcurveto
        return
      </CharString>
      <CharString index="91">
        103 203 185 104 -185 204 -103 -204 -184 -104 184 hlineto
        return
      </CharString>
      <CharString index="92">
        vlineto
        63 34 -37 -64 -64 -34 -39 -63 hvcurveto
        return
      </CharString>
      <CharString index="93">
        -52 callgsubr
        endchar
      </CharString>
      <CharString index="94">
        172 hlineto
        163 78 87 139 139 -75 85 -156 hvcurveto
        return
      </CharString>
      <CharString index="95">
        -28 -15 -15 -28 vhcurveto
        -52 -96 hlineto
        -8 23 43 -8 32 hhcurveto
        endchar
      </CharString>
      <CharString index="96">
        -350 46 211 rmoveto
        241 118 -241 hlineto
        endchar
      </CharString>
      <CharString index="97">
        -137 hlineto
        return
      </CharString>
      <CharString index="98">
        473 104 -473 hlineto
        return
      </CharString>
      <CharString index="99">
        39 308 return
      </CharString>
      <CharString index="100">
        rmoveto
        472 104 -472 hlineto
        return
      </CharString>
      <CharString index="101">
        34 -24 callsubr
        return
      </CharString>
      <CharString index="102">
        -69 rlineto
        117 return
      </CharString>
      <CharString index="103">
        -182 rmoveto
        return
      </CharString>
      <CharString index="104">
        43 34 14 43 vhcurveto
        69 vlineto
        -101 -87 -18 -94 return
      </CharString>
      <CharString index="105">
        52 hlineto
        197 173 rlineto
        21 vlineto
        -197 return
      </CharString>
      <CharString index="106">
        24 hmoveto
        492 112 -306 hlineto
        12 return
      </CharString>
      <CharString index="107">
        rlineto
        -130 hlineto
        return
      </CharString>
      <CharString index="108">
        vhcurveto
        -16 vlineto
        return
      </CharString>
      <CharString index="109">
        hhcurveto
        -215 -132 -113 -242 return
      </CharString>
      <CharString index="110">
        70 -17 callgsubr
        return
      </CharString>
      <CharString index="111">
        -58 callgsubr
        endchar
      </CharString>
      <CharString index="112">
        rmoveto
        208 return
      </CharString>
      <CharString index="113">
        vhcurveto
        -7 hlineto
        return
      </CharString>
      <CharString index="114">
        rmoveto
        120 110 -120 hlineto
        return
      </CharString>
      <CharString index="115">
        rmoveto
        138 137 return
      </CharString>
</ttFont>
